# File produced by Open Asset Import Library (http://www.assimp.sf.net)
# (assimp v3.2.202087883)

mtllib model_normalized.mtl

# 93 vertex positions
v -0.290528 0.073713 -0.040242
v -0.279895 0.071926 -0.038853
v -0.290528 0.071926 -0.040242
v -0.279895 0.073713 -0.038853
v -0.281284 0.071926 -0.028221
v -0.291917 0.071926 -0.029610
v -0.281284 0.073713 -0.028221
v -0.291917 0.073713 -0.029610
v -0.035621 0.073713 0.291274
v -0.024987 0.071926 0.292663
v -0.035621 0.071926 0.291274
v -0.024987 0.073713 0.292663
v -0.026376 0.071926 0.303295
v -0.037010 0.071926 0.301906
v -0.026376 0.073713 0.303295
v -0.037010 0.073713 0.301906
v 0.256202 0.071926 0.340210
v -0.330222 0.061202 0.263602
v 0.256202 0.061202 0.340210
v -0.330222 0.071926 0.263602
v -0.305644 0.061202 0.226461
v 0.332810 0.061202 -0.246213
v -0.305644 0.071926 0.226461
v -0.253613 0.071926 -0.322822
v 0.227812 0.061202 0.296149
v -0.253613 0.061202 -0.322822
v 0.332810 0.071926 -0.246213
v 0.297038 0.061202 -0.233762
v 0.227812 0.071926 0.296149
v -0.237113 0.061202 -0.298134
v 0.297038 0.071926 -0.233762
v 0.036704 0.061202 -0.262363
v -0.237113 0.071926 -0.298134
v 0.036704 0.071926 -0.262363
v 0.269458 0.061202 0.066258
v 0.291613 -0.263200 0.069153
v 0.291613 0.061202 0.069153
v 0.269458 -0.240859 0.066258
v 0.294506 0.061202 0.046999
v 0.272353 -0.240859 0.044105
v -0.272658 -0.263200 -0.004562
v 0.294506 -0.263200 0.046999
v 0.272353 0.061202 0.044105
v -0.272658 -0.240859 -0.004562
v -0.269764 -0.240859 -0.026715
v -0.294812 0.061202 -0.007455
v -0.269764 -0.263200 -0.026715
v -0.269764 0.061202 -0.026715
v -0.272658 0.061202 -0.004562
v -0.294812 -0.263200 -0.007455
v -0.291917 -0.263200 -0.029610
v -0.291917 0.061202 -0.029610
v 0.285261 0.073713 0.034976
v 0.295895 0.071926 0.036366
v 0.285261 0.071926 0.034976
v 0.295895 0.073713 0.036366
v 0.294506 0.071926 0.046999
v 0.283872 0.071926 0.045609
v 0.294506 0.073713 0.046999
v 0.283872 0.073713 0.045609
v 0.051119 0.073713 -0.283012
v 0.061753 0.071926 -0.281623
v 0.051119 0.071926 -0.283012
v 0.061753 0.073713 -0.281623
v 0.060363 0.071926 -0.270989
v 0.049730 0.071926 -0.272378
v 0.060363 0.073713 -0.270989
v 0.049730 0.073713 -0.272378
v -0.034115 0.061202 0.279753
v -0.037010 -0.263200 0.301906
v -0.037010 0.061202 0.301906
v -0.034115 -0.240859 0.279753
v -0.014857 0.061202 0.304801
v -0.011962 -0.240859 0.282647
v 0.036704 -0.263200 -0.262363
v -0.014857 -0.263200 0.304801
v -0.011962 0.061202 0.282647
v 0.036704 -0.240859 -0.262363
v 0.058858 -0.240859 -0.259470
v 0.039598 0.061202 -0.284517
v 0.058858 -0.263200 -0.259470
v 0.058858 0.061202 -0.259470
v 0.039598 -0.263200 -0.284517
v 0.061753 -0.263200 -0.281623
v 0.061753 0.061202 -0.281623
v -0.253613 0.075393 -0.322822
v 0.256202 0.075393 0.340210
v -0.330222 0.075393 0.263602
v 0.332810 0.075393 -0.246213
v 0.256202 0.084330 0.340210
v -0.253613 0.084330 -0.322822
v 0.332810 0.084330 -0.246213
v -0.330222 0.084330 0.263602

# 0 UV coordinates

# 8 vertex normals
vn 0.00329021 0 -0.025186
vn -0.00329021 -0 0.025186
vn 0 -0.0254 -0
vn 0 0.0254 0
vn -0.025186 0 -0.00329021
vn 0.025186 0 0.00329021
vn -0.00277387 -0 0.0252481
vn 0.00277387 0 -0.0252481

# Mesh 'mesh1_mesh1-geometry' with 24 faces
g mesh1_mesh1-geometry
usemtl material_0_24
f  1//1 2//1 3//1
f  2//1 1//1 4//1
f  3//2 2//2 1//2
f  4//2 1//2 2//2
f  5//3 3//3 2//3
f  2//4 3//4 5//4
f  6//5 1//5 3//5
f  3//6 1//6 6//6
f  1//4 7//4 4//4
f  4//3 7//3 1//3
f  7//6 2//6 4//6
f  4//5 2//5 7//5
f  3//3 5//3 6//3
f  6//4 5//4 3//4
f  2//6 7//6 5//6
f  5//5 7//5 2//5
f  1//5 6//5 8//5
f  8//6 6//6 1//6
f  7//4 1//4 8//4
f  8//3 1//3 7//3
f  7//2 6//2 5//2
f  5//1 6//1 7//1
f  6//2 7//2 8//2
f  8//1 7//1 6//1

# Mesh 'mesh2_mesh2-geometry' with 12 faces
g mesh2_mesh2-geometry
usemtl material_0_0
l  4 7
l  1 4
l  2 4
l  7 8
l  5 7
l  3 1
l  8 1
l  3 2
l  2 5
l  6 8
l  5 6
l  6 3

# Mesh 'mesh3_mesh3-geometry' with 24 faces
g mesh3_mesh3-geometry
usemtl material_0_24
f  9//1 10//1 11//1
f  10//1 9//1 12//1
f  11//2 10//2 9//2
f  12//2 9//2 10//2
f  13//3 11//3 10//3
f  10//4 11//4 13//4
f  14//5 9//5 11//5
f  11//6 9//6 14//6
f  9//4 15//4 12//4
f  12//3 15//3 9//3
f  15//6 10//6 12//6
f  12//5 10//5 15//5
f  11//3 13//3 14//3
f  14//4 13//4 11//4
f  10//6 15//6 13//6
f  13//5 15//5 10//5
f  9//5 14//5 16//5
f  16//6 14//6 9//6
f  15//4 9//4 16//4
f  16//3 9//3 15//3
f  15//2 14//2 13//2
f  13//1 14//1 15//1
f  14//2 15//2 16//2
f  16//1 15//1 14//1

# Mesh 'mesh4_mesh4-geometry' with 12 faces
g mesh4_mesh4-geometry
usemtl material_0_0
l  12 15
l  9 12
l  10 12
l  15 16
l  13 15
l  11 9
l  16 9
l  11 10
l  10 13
l  14 16
l  13 14
l  14 11

# Mesh 'mesh5_mesh5-geometry' with 72 faces
g mesh5_mesh5-geometry
usemtl material_1_24
f  17//2 18//2 19//2
f  18//2 17//2 20//2
f  19//1 18//1 17//1
f  20//1 17//1 18//1
f  21//3 19//3 18//3
f  18//4 19//4 21//4
f  22//6 17//6 19//6
f  19//5 17//5 22//5
f  17//4 23//4 20//4
f  20//3 23//3 17//3
f  24//5 18//5 20//5
f  20//6 18//6 24//6
f  19//3 21//3 25//3
f  25//4 21//4 19//4
f  26//3 21//3 18//3
f  18//4 21//4 26//4
f  17//6 22//6 27//6
f  27//5 22//5 17//5
f  19//3 28//3 22//3
f  22//4 28//4 19//4
f  23//4 17//4 29//4
f  29//3 17//3 23//3
f  23//4 24//4 20//4
f  20//3 24//3 23//3
f  18//5 24//5 26//5
f  26//6 24//6 18//6
f  21//1 29//1 25//1
f  25//2 29//2 21//2
f  19//3 25//3 28//3
f  28//4 25//4 19//4
f  21//3 26//3 30//3
f  30//4 26//4 21//4
f  26//1 27//1 22//1
f  22//2 27//2 26//2
f  31//4 17//4 27//4
f  27//3 17//3 31//3
f  32//3 22//3 28//3
f  28//4 22//4 32//4
f  29//4 17//4 31//4
f  31//3 17//3 29//3
f  29//1 21//1 23//1
f  23//2 21//2 29//2
f  24//4 23//4 33//4
f  33//3 23//3 24//3
f  27//1 26//1 24//1
f  24//2 26//2 27//2
f  31//5 25//5 29//5
f  29//6 25//6 31//6
f  25//5 31//5 28//5
f  28//6 31//6 25//6
f  30//3 26//3 22//3
f  22//4 26//4 30//4
f  30//6 23//6 21//6
f  21//5 23//5 30//5
f  27//4 34//4 31//4
f  31//3 34//3 27//3
f  30//3 22//3 32//3
f  32//4 22//4 30//4
f  31//7 32//7 28//7
f  28//8 32//8 31//8
f  23//6 30//6 33//6
f  33//5 30//5 23//5
f  24//4 33//4 27//4
f  27//3 33//3 24//3
f  27//4 33//4 34//4
f  34//3 33//3 27//3
f  32//7 31//7 34//7
f  34//8 31//8 32//8
f  34//2 30//2 32//2
f  32//1 30//1 34//1
f  30//2 34//2 33//2
f  33//1 34//1 30//1

# Mesh 'mesh6_mesh6-geometry' with 12 faces
g mesh6_mesh6-geometry
usemtl material_0_0
l  18 26
l  18 19
l  18 20
l  26 24
l  22 26
l  19 17
l  19 22
l  20 17
l  24 20
l  24 27
l  22 27
l  17 27

# Mesh 'mesh7_mesh7-geometry' with 15 faces
g mesh7_mesh7-geometry
usemtl material_0_0
l  32 30
l  28 32
l  32 34
l  30 21
l  30 33
l  25 28
l  28 31
l  34 33
l  31 34
l  21 25
l  21 23
l  33 23
l  25 29
l  29 31
l  23 29

# Mesh 'mesh8_mesh8-geometry' with 68 faces
g mesh8_mesh8-geometry
usemtl material_1_24
f  35//2 36//2 37//2
f  36//2 35//2 38//2
f  37//1 36//1 35//1
f  38//1 35//1 36//1
f  36//6 39//6 37//6
f  37//5 39//5 36//5
f  39//4 35//4 37//4
f  37//3 35//3 39//3
f  35//5 40//5 38//5
f  38//6 40//6 35//6
f  36//2 38//2 41//2
f  41//1 38//1 36//1
f  39//6 36//6 42//6
f  42//5 36//5 39//5
f  35//4 39//4 43//4
f  43//3 39//3 35//3
f  40//5 35//5 43//5
f  43//6 35//6 40//6
f  40//4 44//4 38//4
f  38//3 44//3 40//3
f  41//2 38//2 44//2
f  44//1 38//1 41//1
f  41//3 42//3 36//3
f  36//4 42//4 41//4
f  42//1 40//1 39//1
f  39//2 40//2 42//2
f  43//1 39//1 40//1
f  40//2 39//2 43//2
f  44//4 40//4 45//4
f  45//3 40//3 44//3
f  44//2 46//2 41//2
f  41//1 46//1 44//1
f  41//6 45//6 44//6
f  44//5 45//5 41//5
f  42//3 41//3 47//3
f  47//4 41//4 42//4
f  40//1 42//1 47//1
f  47//2 42//2 40//2
f  40//1 47//1 45//1
f  45//2 47//2 40//2
f  48//6 44//6 45//6
f  45//5 44//5 48//5
f  46//2 44//2 49//2
f  49//1 44//1 46//1
f  41//2 46//2 50//2
f  50//1 46//1 41//1
f  45//6 41//6 47//6
f  47//5 41//5 45//5
f  50//3 47//3 41//3
f  41//4 47//4 50//4
f  51//1 45//1 47//1
f  47//2 45//2 51//2
f  44//6 48//6 49//6
f  49//5 48//5 44//5
f  45//1 51//1 48//1
f  48//2 51//2 45//2
f  48//4 46//4 49//4
f  49//3 46//3 48//3
f  46//5 51//5 50//5
f  50//6 51//6 46//6
f  47//3 50//3 51//3
f  51//4 50//4 47//4
f  48//1 51//1 52//1
f  52//2 51//2 48//2
f  46//4 48//4 52//4
f  52//3 48//3 46//3
f  51//5 46//5 52//5
f  52//6 46//6 51//6

# Mesh 'mesh9_mesh9-geometry' with 29 faces
g mesh9_mesh9-geometry
usemtl material_0_0
l  44 49
l  38 44
l  41 44
l  44 45
l  49 46
l  48 49
l  38 35
l  38 40
l  41 36
l  41 50
l  47 41
l  40 45
l  47 45
l  45 48
l  50 46
l  46 52
l  52 48
l  35 37
l  43 35
l  40 43
l  36 37
l  42 36
l  50 51
l  47 42
l  51 47
l  51 52
l  39 37
l  43 39
l  42 39

# Mesh 'mesh10_mesh10-geometry' with 24 faces
g mesh10_mesh10-geometry
usemtl material_0_24
f  53//1 54//1 55//1
f  54//1 53//1 56//1
f  55//2 54//2 53//2
f  56//2 53//2 54//2
f  57//3 55//3 54//3
f  54//4 55//4 57//4
f  58//5 53//5 55//5
f  55//6 53//6 58//6
f  53//4 59//4 56//4
f  56//3 59//3 53//3
f  59//6 54//6 56//6
f  56//5 54//5 59//5
f  55//3 57//3 58//3
f  58//4 57//4 55//4
f  54//6 59//6 57//6
f  57//5 59//5 54//5
f  53//5 58//5 60//5
f  60//6 58//6 53//6
f  59//4 53//4 60//4
f  60//3 53//3 59//3
f  59//2 58//2 57//2
f  57//1 58//1 59//1
f  58//2 59//2 60//2
f  60//1 59//1 58//1

# Mesh 'mesh11_mesh11-geometry' with 12 faces
g mesh11_mesh11-geometry
usemtl material_0_0
l  56 59
l  53 56
l  54 56
l  59 60
l  57 59
l  55 53
l  60 53
l  55 54
l  54 57
l  58 60
l  57 58
l  58 55

# Mesh 'mesh12_mesh12-geometry' with 24 faces
g mesh12_mesh12-geometry
usemtl material_0_24
f  61//1 62//1 63//1
f  62//1 61//1 64//1
f  63//2 62//2 61//2
f  64//2 61//2 62//2
f  65//3 63//3 62//3
f  62//4 63//4 65//4
f  66//5 61//5 63//5
f  63//6 61//6 66//6
f  61//4 67//4 64//4
f  64//3 67//3 61//3
f  67//6 62//6 64//6
f  64//5 62//5 67//5
f  63//3 65//3 66//3
f  66//4 65//4 63//4
f  62//6 67//6 65//6
f  65//5 67//5 62//5
f  61//5 66//5 68//5
f  68//6 66//6 61//6
f  67//4 61//4 68//4
f  68//3 61//3 67//3
f  67//2 66//2 65//2
f  65//1 66//1 67//1
f  66//2 67//2 68//2
f  68//1 67//1 66//1

# Mesh 'mesh13_mesh13-geometry' with 12 faces
g mesh13_mesh13-geometry
usemtl material_0_0
l  64 67
l  61 64
l  62 64
l  67 68
l  65 67
l  63 61
l  68 61
l  63 62
l  62 65
l  66 68
l  65 66
l  66 63

# Mesh 'mesh14_mesh14-geometry' with 68 faces
g mesh14_mesh14-geometry
usemtl material_1_24
f  69//5 70//5 71//5
f  70//5 69//5 72//5
f  71//6 70//6 69//6
f  72//6 69//6 70//6
f  70//2 73//2 71//2
f  71//1 73//1 70//1
f  73//4 69//4 71//4
f  71//3 69//3 73//3
f  69//1 74//1 72//1
f  72//2 74//2 69//2
f  70//5 72//5 75//5
f  75//6 72//6 70//6
f  73//2 70//2 76//2
f  76//1 70//1 73//1
f  69//4 73//4 77//4
f  77//3 73//3 69//3
f  74//1 69//1 77//1
f  77//2 69//2 74//2
f  74//4 78//4 72//4
f  72//3 78//3 74//3
f  75//5 72//5 78//5
f  78//6 72//6 75//6
f  75//3 76//3 70//3
f  70//4 76//4 75//4
f  76//6 74//6 73//6
f  73//5 74//5 76//5
f  77//6 73//6 74//6
f  74//5 73//5 77//5
f  78//4 74//4 79//4
f  79//3 74//3 78//3
f  78//5 80//5 75//5
f  75//6 80//6 78//6
f  75//2 79//2 78//2
f  78//1 79//1 75//1
f  76//3 75//3 81//3
f  81//4 75//4 76//4
f  74//6 76//6 81//6
f  81//5 76//5 74//5
f  74//6 81//6 79//6
f  79//5 81//5 74//5
f  82//2 78//2 79//2
f  79//1 78//1 82//1
f  80//5 78//5 32//5
f  32//6 78//6 80//6
f  75//5 80//5 83//5
f  83//6 80//6 75//6
f  79//2 75//2 81//2
f  81//1 75//1 79//1
f  83//3 81//3 75//3
f  75//4 81//4 83//4
f  84//6 79//6 81//6
f  81//5 79//5 84//5
f  78//2 82//2 32//2
f  32//1 82//1 78//1
f  79//6 84//6 82//6
f  82//5 84//5 79//5
f  82//4 80//4 32//4
f  32//3 80//3 82//3
f  80//1 84//1 83//1
f  83//2 84//2 80//2
f  81//3 83//3 84//3
f  84//4 83//4 81//4
f  82//6 84//6 85//6
f  85//5 84//5 82//5
f  80//4 82//4 85//4
f  85//3 82//3 80//3
f  84//1 80//1 85//1
f  85//2 80//2 84//2

# Mesh 'mesh15_mesh15-geometry' with 24 faces
g mesh15_mesh15-geometry
usemtl material_2_24
f  86//3 87//3 88//3
f  87//3 86//3 89//3
f  88//4 87//4 86//4
f  89//4 86//4 87//4
f  90//2 88//2 87//2
f  87//1 88//1 90//1
f  88//5 91//5 86//5
f  86//6 91//6 88//6
f  86//1 92//1 89//1
f  89//2 92//2 86//2
f  89//6 90//6 87//6
f  87//5 90//5 89//5
f  88//2 90//2 93//2
f  93//1 90//1 88//1
f  91//5 88//5 93//5
f  93//6 88//6 91//6
f  92//1 86//1 91//1
f  91//2 86//2 92//2
f  90//6 89//6 92//6
f  92//5 89//5 90//5
f  90//4 91//4 93//4
f  93//3 91//3 90//3
f  91//4 90//4 92//4
f  92//3 90//3 91//3

