# File produced by Open Asset Import Library (http://www.assimp.sf.net)
# (assimp v3.2.202087883)

mtllib model_normalized.mtl

# 60 vertex positions
v -0.387926 0.178816 -0.221670
v -0.382846 0.178816 -0.216594
v -0.387926 0.178816 0.221673
v 0.387927 0.178816 -0.221670
v -0.382846 0.178816 0.216593
v -0.387926 0.189899 -0.221670
v 0.382845 0.178816 -0.216594
v -0.382846 0.156648 0.194426
v -0.382846 0.189899 0.216593
v 0.387927 0.178816 0.221673
v -0.387926 0.189899 0.221673
v 0.387927 0.189899 -0.221670
v 0.382845 0.178816 0.216593
v 0.360678 0.156648 -0.216594
v 0.382845 0.189899 -0.216594
v -0.382846 -0.258987 0.216593
v -0.382846 0.156648 -0.194427
v -0.382846 0.189899 -0.216594
v 0.387927 0.189899 0.221673
v 0.382845 0.156648 0.194426
v 0.382845 -0.258987 -0.216594
v -0.360679 0.156648 -0.216594
v -0.382846 -0.258987 0.194426
v -0.360679 0.156648 0.216593
v -0.382846 -0.258987 -0.194427
v -0.379790 0.156648 0.194426
v 0.382845 0.189899 0.216593
v 0.382845 -0.258987 0.194426
v 0.382845 0.156648 -0.194427
v 0.360678 -0.258987 -0.216594
v -0.360679 -0.258987 -0.216594
v -0.360679 0.156648 -0.213535
v -0.379790 -0.258987 0.194426
v -0.360679 -0.258987 0.216593
v -0.382846 -0.258987 -0.216594
v -0.379790 0.156648 -0.194427
v 0.360678 0.156648 0.216593
v 0.382845 -0.258987 0.216593
v 0.379792 0.156648 0.194426
v 0.360678 -0.258987 -0.213535
v 0.382845 -0.258987 -0.194427
v 0.360678 0.156648 -0.213535
v -0.379790 -0.258987 0.213537
v -0.360679 -0.258987 0.213537
v -0.379790 -0.258987 -0.213535
v -0.379790 -0.258987 -0.194427
v -0.379790 0.189899 -0.213535
v -0.379790 0.189899 0.213537
v 0.360678 -0.258987 0.216593
v 0.360678 0.156648 0.213537
v 0.379792 -0.258987 0.213537
v 0.379792 -0.258987 0.194426
v 0.379792 0.156648 -0.194427
v 0.379792 -0.258987 -0.213535
v 0.379792 -0.258987 -0.194427
v -0.360679 -0.258987 -0.213535
v 0.379792 0.189899 -0.213535
v -0.360679 0.156648 0.213537
v 0.379792 0.189899 0.213537
v 0.360678 -0.258987 0.213537

# 199 UV coordinates
vt 0 2.13333 0
vt -0.024443 2.10889 0
vt 0 0 0
vt -3.73333 2.13333 0
vt -0.024443 0.024443 0
vt 0 2.10667 0
vt -2.13333 2.16 0
vt -2.13333 2.10667 0
vt 0 2.16 0
vt -3.73333 2.10667 0
vt -3.70889 2.10889 0
vt -0.13111 2 0
vt -0.024443 2.10667 0
vt -2.10889 2.10667 0
vt 2.10889 2.10667 0
vt 0.024443 2.16 0
vt 0.024443 2.10667 0
vt -3.73333 0 0
vt -3.73333 2.16 0
vt -3.70889 0.024443 0
vt -3.70889 2.10667 0
vt -3.60222 2 0
vt 3.70889 2.16 0
vt 3.70889 2.10667 0
vt -0.024443 0 0
vt -2.00222 2 0
vt 2.10889 2.16 0
vt -0.024443 2.16 0
vt 3.73333 2.16 0
vt 3.73333 2.10667 0
vt 0.024443 0.024443 0
vt 0.024443 2.10889 0
vt 3.73333 2.13333 0
vt 2.13333 2.10667 0
vt 2.13333 2.16 0
vt 0.13111 2 0
vt -2.10889 2.16 0
vt -3.70889 0 0
vt -0.13111 0 0
vt 0.024443 0 0
vt -2.00222 0 0
vt -0.024443 2.00222 0
vt -0.039149 0.13111 0
vt -0.024443 0.13111 0
vt -3.70889 2.16 0
vt 3.73333 0 0
vt 3.70889 2.10889 0
vt 0.13111 0 0
vt 2.00222 2 0
vt -3.60222 0 0
vt 2.10889 0 0
vt -3.60222 2.10889 0
vt -0.13111 2.09419 0
vt -0.13111 2.10889 0
vt -0.024443 2 0
vt -0.039149 0 0
vt -2.10889 0 0
vt 0.039149 2 0
vt 0.024443 2 0
vt -0.039149 2.00222 0
vt -0.039149 2 0
vt 3.70889 0.024443 0
vt 3.60222 2 0
vt -3.69419 2 0
vt -3.70889 2 0
vt -3.69419 0.13111 0
vt -3.70889 2.00222 0
vt -3.70889 0.13111 0
vt -3.60222 2.09419 0
vt -2.09419 0 0
vt -2.10889 2 0
vt 2.00222 0 0
vt 2.09419 2 0
vt 2.10889 2 0
vt -0.039149 0.039149 0
vt -0.13111 0.024443 0
vt 0.039149 0 0
vt -0.039149 2.09419 0
vt 2.09419 2.16 0
vt 0.039149 2.16 0
vt 3.60222 0 0
vt -3.60222 0.039149 0
vt -3.60222 0.024443 0
vt 3.70889 0 0
vt -3.69419 0.039149 0
vt -3.69419 0 0
vt -3.69419 2.00222 0
vt -3.69419 2.09419 0
vt -2.09419 2 0
vt 3.70889 2 0
vt 3.69419 0 0
vt 2.09419 0 0
vt 3.69419 2.16 0
vt -0.13111 0.039149 0
vt -2.09419 2.16 0
vt 3.69419 2 0
vt -0.039149 2.16 0
vt -3.69419 2.16 0
vt -0.018332 1.58167 0
vt 0 1.6 0
vt -2.8 1.6 0
vt -0.018332 0.018332 0
vt -1.6 1.58 0
vt -1.6 1.62 0
vt 0 1.58 0
vt -2.8 1.58 0
vt 0 1.62 0
vt -2.78167 1.58167 0
vt -1.58167 1.58 0
vt -0.018332 1.58 0
vt -0.098332 1.5 0
vt 0.018332 1.58 0
vt 0.018332 1.62 0
vt 1.58167 1.58 0
vt -2.8 0 0
vt -2.8 1.62 0
vt -2.78167 0.018332 0
vt -2.70167 1.5 0
vt -2.78167 1.58 0
vt 2.78167 1.58 0
vt 2.78167 1.62 0
vt -0.018332 0 0
vt -1.50167 1.5 0
vt 1.58167 1.62 0
vt -0.018332 1.62 0
vt 2.8 1.58 0
vt 2.8 1.62 0
vt 0.018332 0.018332 0
vt 2.8 1.6 0
vt 0.018332 1.58167 0
vt 1.6 1.62 0
vt 1.6 1.58 0
vt 0.098332 1.5 0
vt -1.58167 1.62 0
vt -2.78167 0 0
vt -0.098332 0 0
vt 0.018332 0 0
vt -1.50167 0 0
vt -0.018332 0.098332 0
vt -0.029362 0.098332 0
vt -0.018332 1.50167 0
vt -2.78167 1.62 0
vt 2.8 0 0
vt 2.78167 1.58167 0
vt 0.098332 0 0
vt 1.50167 1.5 0
vt -2.70167 0 0
vt 1.58167 0 0
vt -0.098332 1.58167 0
vt -0.098332 1.57064 0
vt -2.70167 1.58167 0
vt -0.029362 0 0
vt -0.018332 1.5 0
vt -1.58167 0 0
vt 0.018332 1.5 0
vt 0.029362 1.5 0
vt -0.029362 1.50167 0
vt -0.029362 1.5 0
vt 2.78167 0.018332 0
vt 2.70167 1.5 0
vt -2.78167 1.5 0
vt -2.77064 1.5 0
vt -2.78167 0.098332 0
vt -2.78167 1.50167 0
vt -2.77064 0.098332 0
vt -2.70167 1.57064 0
vt -1.58167 1.5 0
vt -1.57064 0 0
vt 1.50167 0 0
vt 1.58167 1.5 0
vt 1.57064 1.5 0
vt -0.029362 0.029362 0
vt -0.098332 0.018332 0
vt 0.029362 0 0
vt -0.029362 1.57064 0
vt 1.57064 1.62 0
vt 0.029362 1.62 0
vt 2.70167 0 0
vt -2.70167 0.018332 0
vt -2.70167 0.029362 0
vt 2.78167 0 0
vt -2.77064 0.029362 0
vt -2.77064 0 0
vt -2.77064 1.50167 0
vt -2.77064 1.57064 0
vt -1.57064 1.5 0
vt 2.77064 0 0
vt 2.78167 1.5 0
vt 1.57064 0 0
vt 2.77064 1.62 0
vt -0.098332 0.029362 0
vt -1.57064 1.62 0
vt 2.77064 1.5 0
vt -0.029362 1.62 0
vt -2.77064 1.62 0
vt -0.016055 0.016055 0
vt -1.515 0.016055 0
vt -0.016055 0.858836 0
vt -1.515 0.858836 0

# 6 vertex normals
vn 0 -0.01 0
vn -0.01 0 0
vn 0 0 -0.01
vn 0.01 0 0
vn 0 0 0.01
vn 0 0.01 0

# Mesh 'mesh1_mesh1-geometry' with 122 faces
g mesh1_mesh1-geometry
usemtl material_0_2_8
f  1/1/1 2/2/1 3/3/1
f  2/2/1 1/1/1 4/4/1
f  3/3/1 2/2/1 5/5/1
f  3/6/2 6/7/2 1/8/2
f  6/9/3 4/10/3 1/6/3
f  2/2/1 4/4/1 7/11/1
f  8/12/2 5/13/2 2/14/2
f  2/15/4 9/16/4 5/17/4
f  5/5/1 10/18/1 3/3/1
f  6/7/2 3/6/2 11/9/2
f  4/10/3 6/9/3 12/19/3
f  7/11/1 4/4/1 13/20/1
f  7/21/3 14/22/3 2/13/3
f  15/23/5 2/17/5 7/24/5
f  5/13/2 8/12/2 16/25/2
f  8/12/2 2/14/2 17/26/2
f  9/16/4 2/15/4 18/27/4
f  9/28/3 13/21/3 5/13/3
f  10/18/1 5/5/1 13/20/1
f  19/29/5 3/6/5 10/30/5
f  3/6/5 19/29/5 11/9/5
f  11/3/6 9/31/6 6/1/6
f  6/1/6 18/32/6 12/33/6
f  19/9/4 4/34/4 12/35/4
f  10/18/1 13/20/1 4/4/1
f  13/17/4 20/36/4 7/15/4
f  13/13/2 15/37/2 7/14/2
f  21/38/3 14/22/3 7/21/3
f  22/12/3 2/13/3 14/22/3
f  2/17/5 15/23/5 18/16/5
f  23/39/2 16/25/2 8/12/2
f  16/40/5 24/36/5 5/17/5
f  17/26/2 2/14/2 25/41/2
f  17/42/1 26/43/1 8/44/1
f  18/32/6 6/1/6 9/31/6
f  13/21/3 9/28/3 27/45/3
f  5/17/5 24/36/5 13/24/5
f  4/34/4 19/9/4 10/6/4
f  9/31/6 11/3/6 19/46/6
f  12/33/6 18/32/6 15/47/6
f  12/33/6 15/47/6 19/46/6
f  13/17/4 28/48/4 20/36/4
f  7/15/4 20/36/4 29/49/4
f  15/37/2 13/13/2 27/28/2
f  14/22/3 21/38/3 30/50/3
f  7/15/4 29/49/4 21/51/4
f  31/39/3 2/13/3 22/12/3
f  14/52/1 32/53/1 22/54/1
f  33/43/1 16/5/1 23/44/1
f  8/55/3 33/56/3 23/25/3
f  24/36/5 16/40/5 34/48/5
f  25/41/2 2/14/2 35/57/2
f  25/40/5 36/58/5 17/59/5
f  26/43/1 17/42/1 36/60/1
f  33/56/3 8/55/3 26/61/3
f  9/31/6 19/46/6 27/62/6
f  37/63/5 13/24/5 24/36/5
f  27/62/6 19/46/6 15/47/6
f  28/48/4 13/17/4 38/40/4
f  28/38/3 39/64/3 20/65/3
f  39/66/1 29/67/1 20/68/1
f  21/11/1 40/69/1 30/52/1
f  40/70/2 14/71/2 30/57/2
f  21/51/4 29/49/4 41/72/4
f  2/13/3 31/39/3 35/25/3
f  32/73/4 31/51/4 22/74/4
f  32/53/1 14/52/1 42/69/1
f  16/5/1 33/43/1 43/75/1
f  16/5/1 43/75/1 34/76/1
f  44/77/4 24/59/4 34/40/4
f  35/2/1 45/78/1 25/42/1
f  36/58/5 25/40/5 46/77/5
f  47/79/4 26/36/4 36/49/4
f  48/80/4 33/48/4 26/36/4
f  49/81/5 13/24/5 37/63/5
f  24/76/1 50/82/1 37/83/1
f  13/24/5 49/81/5 38/84/5
f  38/20/1 51/85/1 28/68/1
f  39/64/3 28/38/3 52/86/3
f  29/67/1 39/66/1 53/87/1
f  40/69/1 21/11/1 54/88/1
f  14/71/2 40/70/2 42/89/2
f  29/90/5 55/91/5 41/84/5
f  55/87/1 21/11/1 41/67/1
f  45/78/1 35/2/1 31/54/1
f  31/51/4 32/73/4 56/92/4
f  42/63/5 57/93/5 32/36/5
f  33/48/4 48/80/4 43/77/4
f  34/76/1 43/75/1 44/94/1
f  24/59/4 44/77/4 58/58/4
f  46/60/1 25/42/1 45/78/1
f  45/92/4 36/49/4 46/72/4
f  48/80/4 26/36/4 47/79/4
f  47/79/4 36/49/4 45/92/4
f  50/61/2 49/25/2 37/55/2
f  50/82/1 24/76/1 58/94/1
f  49/83/1 51/85/1 38/20/1
f  28/68/1 51/85/1 52/66/1
f  52/39/2 51/56/2 39/12/2
f  39/12/2 57/95/2 53/26/2
f  55/91/5 29/90/5 53/96/5
f  54/88/1 21/11/1 55/87/1
f  57/93/5 40/81/5 54/91/5
f  40/81/5 57/93/5 42/63/5
f  45/78/1 31/54/1 56/53/1
f  32/36/5 45/77/5 56/48/5
f  47/80/5 32/36/5 57/93/5
f  48/97/3 44/39/3 43/56/3
f  44/39/3 48/97/3 58/12/3
f  47/78/1 59/85/1 48/75/1
f  45/77/5 32/36/5 47/80/5
f  49/25/2 50/61/2 60/56/2
f  58/12/3 48/97/3 50/22/3
f  51/85/1 49/83/1 60/82/1
f  59/97/2 39/12/2 51/56/2
f  39/12/2 59/97/2 57/95/2
f  53/26/2 57/95/2 55/41/2
f  55/41/2 57/95/2 54/70/2
f  59/85/1 47/78/1 57/88/1
f  59/98/3 50/22/3 48/97/3
f  50/22/3 51/86/3 60/50/3
f  51/86/3 50/22/3 59/98/3

# Mesh 'mesh1_mesh1-geometry' with 120 faces
g mesh1_mesh1-geometry
usemtl material_1_1_8
f  3/3/6 2/99/6 1/100/6
f  4/101/6 1/100/6 2/99/6
f  5/102/6 2/99/6 3/3/6
f  1/103/4 6/104/4 3/105/4
f  1/105/5 4/106/5 6/107/5
f  7/108/6 4/101/6 2/99/6
f  2/109/4 5/110/4 8/111/4
f  5/112/2 9/113/2 2/114/2
f  3/3/6 10/115/6 5/102/6
f  11/107/4 3/105/4 6/104/4
f  12/116/5 6/107/5 4/106/5
f  13/117/6 4/101/6 7/108/6
f  2/110/5 14/118/5 7/119/5
f  7/120/3 2/112/3 15/121/3
f  16/122/4 8/111/4 5/110/4
f  17/123/4 2/109/4 8/111/4
f  18/124/2 2/114/2 9/113/2
f  5/110/5 13/119/5 9/125/5
f  13/117/6 5/102/6 10/115/6
f  10/126/3 3/105/3 19/127/3
f  11/107/3 19/127/3 3/105/3
f  6/100/1 9/128/1 11/3/1
f  12/129/1 18/130/1 6/100/1
f  12/131/2 4/132/2 19/107/2
f  4/101/6 13/117/6 10/115/6
f  7/114/2 20/133/2 13/112/2
f  7/109/4 15/134/4 13/110/4
f  7/119/5 14/118/5 21/135/5
f  14/118/5 2/110/5 22/111/5
f  18/113/3 15/121/3 2/112/3
f  8/111/4 16/122/4 23/136/4
f  5/112/3 24/133/3 16/137/3
f  25/138/4 2/109/4 17/123/4
f  8/139/6 26/140/6 17/141/6
f  9/128/1 6/100/1 18/130/1
f  27/142/5 9/125/5 13/119/5
f  13/120/3 24/133/3 5/112/3
f  10/105/2 19/107/2 4/132/2
f  19/143/1 11/3/1 9/128/1
f  15/144/1 18/130/1 12/129/1
f  19/143/1 15/144/1 12/129/1
f  20/133/2 28/145/2 13/112/2
f  29/146/2 20/133/2 7/114/2
f  27/125/4 13/110/4 15/134/4
f  30/147/5 21/135/5 14/118/5
f  21/148/2 29/146/2 7/114/2
f  22/111/5 2/110/5 31/136/5
f  22/149/6 32/150/6 14/151/6
f  23/139/6 16/102/6 33/140/6
f  23/122/5 33/152/5 8/153/5
f  34/145/3 16/137/3 24/133/3
f  35/154/4 2/109/4 25/138/4
f  17/155/3 36/156/3 25/137/3
f  36/157/6 17/141/6 26/140/6
f  26/158/5 8/153/5 33/152/5
f  27/159/1 19/143/1 9/128/1
f  24/133/3 13/120/3 37/160/3
f  15/144/1 19/143/1 27/159/1
f  38/137/2 13/112/2 28/145/2
f  20/161/5 39/162/5 28/135/5
f  20/163/6 29/164/6 39/165/6
f  30/151/6 40/166/6 21/108/6
f  30/154/4 14/167/4 40/168/4
f  41/169/2 29/146/2 21/148/2
f  35/122/5 31/136/5 2/110/5
f  22/170/2 31/148/2 32/171/2
f  42/166/6 14/151/6 32/150/6
f  43/172/6 33/140/6 16/102/6
f  34/173/6 43/172/6 16/102/6
f  34/137/2 24/155/2 44/174/2
f  25/141/6 45/175/6 35/99/6
f  46/174/3 25/137/3 36/156/3
f  36/146/2 26/133/2 47/176/2
f  26/133/2 33/145/2 48/177/2
f  37/160/3 13/120/3 49/178/3
f  37/179/6 50/180/6 24/173/6
f  38/181/3 49/178/3 13/120/3
f  28/163/6 51/182/6 38/117/6
f  52/183/5 28/135/5 39/162/5
f  53/184/6 39/165/6 29/164/6
f  54/185/6 21/108/6 40/166/6
f  42/186/4 40/168/4 14/167/4
f  41/181/3 55/187/3 29/188/3
f  41/164/6 21/108/6 55/184/6
f  31/149/6 35/99/6 45/175/6
f  56/189/2 32/171/2 31/148/2
f  32/133/3 57/190/3 42/160/3
f  43/174/2 48/177/2 33/145/2
f  44/191/6 43/172/6 34/173/6
f  58/156/2 44/174/2 24/155/2
f  45/175/6 25/141/6 46/157/6
f  46/169/2 36/146/2 45/189/2
f  47/176/2 26/133/2 48/177/2
f  45/189/2 36/146/2 47/176/2
f  37/153/4 49/122/4 50/158/4
f  58/191/6 24/173/6 50/180/6
f  38/117/6 51/182/6 49/179/6
f  52/165/6 51/182/6 28/163/6
f  39/111/4 51/152/4 52/136/4
f  53/123/4 57/192/4 39/111/4
f  53/193/3 29/188/3 55/187/3
f  55/184/6 21/108/6 54/185/6
f  54/187/3 40/178/3 57/190/3
f  42/160/3 57/190/3 40/178/3
f  56/150/6 31/149/6 45/175/6
f  56/145/3 45/174/3 32/133/3
f  57/190/3 32/133/3 47/177/3
f  43/152/5 44/136/5 48/194/5
f  58/111/5 48/194/5 44/136/5
f  47/177/3 32/133/3 45/174/3
f  60/152/4 50/158/4 49/122/4
f  50/118/5 48/194/5 58/111/5
f  60/180/6 49/179/6 51/182/6
f  51/152/4 39/111/4 59/194/4
f  57/192/4 59/194/4 39/111/4
f  55/138/4 57/192/4 53/123/4
f  54/168/4 57/192/4 55/138/4
f  48/194/5 50/118/5 59/195/5
f  60/147/5 51/183/5 50/118/5
f  59/195/5 50/118/5 51/183/5

# Mesh 'mesh1_mesh1-geometry' with 2 faces
g mesh1_mesh1-geometry
usemtl material_2_3_8
f  48/196/6 59/197/6 47/198/6
f  57/199/6 47/198/6 59/197/6

