# File produced by Open Asset Import Library (http://www.assimp.sf.net)
# (assimp v3.2.202087883)

mtllib model_normalized.mtl

# 113 vertex positions
v 0.095312 0.144512 -0.095312
v 0.152247 0.114975 -0.087900
v 0.120073 0.114975 -0.120073
v 0.120851 0.144512 -0.069773
v 0.210640 0.069114 -0.121613
v 0.095312 0.180765 -0.095312
v 0.139546 0.144512 -0.000000
v 0.166127 0.069114 -0.166127
v 0.175800 0.114975 -0.000000
v 0.120851 0.180765 -0.069773
v 0.245424 -0.001854 -0.141696
v 0.243226 0.069114 -0.000000
v 0.120851 0.144512 0.069773
v 0.139546 0.180765 -0.000000
v 0.193560 -0.001854 -0.193560
v 0.283391 -0.001854 -0.000000
v 0.152247 0.114975 0.087900
v 0.120851 0.180765 0.069773
v 0.196707 -0.083272 -0.196707
v 0.287998 -0.083272 -0.000000
v 0.210640 0.069114 0.121613
v 0.245424 -0.001854 0.141696
v 0.120073 0.114975 0.120073
v 0.095312 0.180765 0.095312
v 0.249414 -0.083272 -0.144000
v 0.249414 -0.083272 0.144000
v 0.095312 0.144512 0.095312
v 0.120073 -0.399285 -0.120073
v 0.175800 -0.399285 -0.000000
v 0.166127 0.069114 0.166127
v 0.193560 -0.001854 0.193560
v 0.152247 -0.399285 -0.087900
v 0.152247 -0.399285 0.087900
v 0.196707 -0.083272 0.196707
v 0.120073 -0.399285 0.120073
v -0.000000 -0.399285 -0.000000
v 0.087900 0.114975 0.152247
v 0.069773 0.144512 0.120851
v 0.121613 0.069114 0.210640
v -0.000000 0.144512 0.139546
v -0.000000 0.114975 0.175800
v 0.069773 0.180765 0.120851
v 0.141696 -0.001854 0.245424
v -0.000000 0.069114 0.243226
v -0.069773 0.144512 0.120851
v -0.000000 0.180765 0.139546
v -0.000000 -0.001854 0.283391
v -0.087900 0.114975 0.152247
v -0.069773 0.180765 0.120851
v -0.000000 -0.083272 0.287998
v -0.121613 0.069114 0.210640
v -0.141696 -0.001854 0.245424
v -0.120073 0.114975 0.120073
v -0.095312 0.180765 0.095312
v 0.144000 -0.083272 0.249414
v -0.144000 -0.083272 0.249414
v -0.095312 0.144512 0.095312
v -0.000000 -0.399285 0.175800
v -0.166127 0.069114 0.166127
v -0.193560 -0.001854 0.193560
v 0.087900 -0.399285 0.152247
v -0.087900 -0.399285 0.152247
v -0.196707 -0.083272 0.196707
v -0.120073 -0.399285 0.120073
v -0.152247 0.114975 0.087900
v -0.120851 0.144512 0.069773
v -0.210640 0.069114 0.121613
v -0.139546 0.144512 -0.000000
v -0.175800 0.114975 -0.000000
v -0.120851 0.180765 0.069773
v -0.245424 -0.001854 0.141696
v -0.243226 0.069114 -0.000000
v -0.120851 0.144512 -0.069773
v -0.139546 0.180765 -0.000000
v -0.283391 -0.001854 -0.000000
v -0.152247 0.114975 -0.087900
v -0.120851 0.180765 -0.069773
v -0.287998 -0.083272 -0.000000
v -0.210640 0.069114 -0.121613
v -0.245424 -0.001854 -0.141696
v -0.120073 0.114975 -0.120073
v -0.095312 0.180765 -0.095312
v -0.249414 -0.083272 0.144000
v -0.249414 -0.083272 -0.144000
v -0.095312 0.144512 -0.095312
v -0.175800 -0.399285 -0.000000
v -0.166127 0.069114 -0.166127
v -0.193560 -0.001854 -0.193560
v -0.152247 -0.399285 0.087900
v -0.152247 -0.399285 -0.087900
v -0.196707 -0.083272 -0.196707
v -0.120073 -0.399285 -0.120073
v -0.087900 0.114975 -0.152247
v -0.069773 0.144512 -0.120851
v -0.121613 0.069114 -0.210640
v -0.000000 0.144512 -0.139546
v -0.000000 0.114975 -0.175800
v -0.069773 0.180765 -0.120851
v -0.141696 -0.001854 -0.245424
v -0.000000 0.069114 -0.243226
v 0.069773 0.144512 -0.120851
v -0.000000 0.180765 -0.139546
v -0.000000 -0.001854 -0.283391
v 0.087900 0.114975 -0.152247
v 0.069773 0.180765 -0.120851
v -0.000000 -0.083272 -0.287998
v 0.121613 0.069114 -0.210640
v 0.141696 -0.001854 -0.245424
v -0.144000 -0.083272 -0.249414
v 0.144000 -0.083272 -0.249414
v -0.000000 -0.399285 -0.175800
v -0.087900 -0.399285 -0.152247
v 0.087900 -0.399285 -0.152247

# 0 UV coordinates

# 210 vertex normals
vn 0.0162874 0.0107051 -0.0162874
vn 0.0131439 0.0203669 -0.00758862
vn 0.0109708 0.0201108 -0.0109708
vn 0.019822 0.0110127 -0.0114442
vn -0.0109708 -0.0201108 0.0109708
vn -0.0131439 -0.0203669 0.00758862
vn -0.0162874 -0.0107051 0.0162874
vn -0.019822 -0.0110127 0.0114442
vn 0.0161544 0.0172397 -0.00932671
vn -0.0161544 -0.0172397 0.00932671
vn 0.0179605 0 -0.0179605
vn -0.0179605 0 0.0179605
vn 0.0228884 0.0110127 0
vn -0.0228884 -0.0110127 0
vn 0.0133983 0.0169154 -0.0133983
vn -0.0133983 -0.0169154 0.0133983
vn 0.0151772 0.0203669 0
vn -0.0151772 -0.0203669 0
vn 0.021997 0 -0.0127
vn -0.021997 0 0.0127
vn 0.0210991 0.00718327 -0.0121816
vn -0.0210991 -0.00718327 0.0121816
vn 0.0186535 0.0172397 0
vn -0.0186535 -0.0172397 0
vn 0.019822 0.0110127 0.0114442
vn -0.019822 -0.0110127 -0.0114442
vn 0.0254 0 0
vn -0.0254 -0 0
vn 0.0172736 0.00695716 -0.0172736
vn -0.0172736 -0.00695716 0.0172736
vn 0.0243631 0.00718327 0
vn -0.0243631 -0.00718327 0
vn 0.0131439 0.0203669 0.00758862
vn -0.0131439 -0.0203669 -0.00758862
vn 0.021997 0 0.0127
vn -0.021997 0 -0.0127
vn 0.01779 -0.00349113 -0.01779
vn -0.01779 0.00349113 0.01779
vn 0.0251419 -0.00361183 0
vn -0.0251419 0.00361183 0
vn 0.0161544 0.0172397 0.00932671
vn -0.0161544 -0.0172397 -0.00932671
vn 0.0210991 0.00718327 0.0121816
vn -0.0210991 -0.00718327 -0.0121816
vn 0.0109708 0.0201108 0.0109708
vn -0.0109708 -0.0201108 -0.0109708
vn 0.0179605 0 0.0179605
vn -0.0179605 0 -0.0179605
vn 0.0217735 -0.00361183 -0.0125709
vn -0.0217735 0.00361183 0.0125709
vn 0.0217735 -0.00361183 0.0125709
vn -0.0217735 0.00361183 -0.0125709
vn 0.0162874 0.0107051 0.0162874
vn -0.0162874 -0.0107051 -0.0162874
vn 0.0169892 -0.00823979 -0.0169892
vn -0.0169892 0.00823979 0.0169892
vn 0.0239361 -0.00849841 0
vn -0.0239361 0.00849841 0
vn 0.0133983 0.0169154 0.0133983
vn -0.0133983 -0.0169154 -0.0133983
vn 0.0172736 0.00695716 0.0172736
vn -0.0172736 -0.00695716 -0.0172736
vn 0.0207293 -0.00849841 -0.0119681
vn -0.0207293 0.00849841 0.0119681
vn 0.0207293 -0.00849841 0.0119681
vn -0.0207293 0.00849841 -0.0119681
vn 0.01779 -0.00349113 0.01779
vn -0.01779 0.00349113 -0.01779
vn 0 0.0254 0
vn 0 -0.0254 0
vn 0.0169892 -0.00823979 0.0169892
vn -0.0169892 0.00823979 -0.0169892
vn 0.00758862 0.0203669 0.0131439
vn 0.0114442 0.0110127 0.019822
vn -0.00758862 -0.0203669 -0.0131439
vn -0.0114442 -0.0110127 -0.019822
vn 0.00932671 0.0172397 0.0161544
vn -0.00932671 -0.0172397 -0.0161544
vn 0 0.0110127 0.0228884
vn 0 -0.0110127 -0.0228884
vn 0 0.0203669 0.0151772
vn 0 -0.0203669 -0.0151772
vn 0.0127 0 0.021997
vn -0.0127 0 -0.021997
vn 0.0121816 0.00718327 0.0210991
vn -0.0121816 -0.00718327 -0.0210991
vn 0 0.0172397 0.0186535
vn 0 -0.0172397 -0.0186535
vn -0.0114442 0.0110127 0.019822
vn 0.0114442 -0.0110127 -0.019822
vn 0 0 0.0254
vn 0 -0 -0.0254
vn 0 0.00718327 0.0243631
vn 0 -0.00718327 -0.0243631
vn -0.00758862 0.0203669 0.0131439
vn 0.00758862 -0.0203669 -0.0131439
vn -0.0127 0 0.021997
vn 0.0127 0 -0.021997
vn 0 -0.00361183 0.0251419
vn 0 0.00361183 -0.0251419
vn -0.00932671 0.0172397 0.0161544
vn 0.00932671 -0.0172397 -0.0161544
vn -0.0121816 0.00718327 0.0210991
vn 0.0121816 -0.00718327 -0.0210991
vn -0.0109708 0.0201108 0.0109708
vn 0.0109708 -0.0201108 -0.0109708
vn 0.0125709 -0.00361183 0.0217735
vn -0.0125709 0.00361183 -0.0217735
vn -0.0125709 -0.00361183 0.0217735
vn 0.0125709 0.00361183 -0.0217735
vn -0.0162874 0.0107051 0.0162874
vn 0.0162874 -0.0107051 -0.0162874
vn 0 -0.00849841 0.0239361
vn 0 0.00849841 -0.0239361
vn -0.0133983 0.0169154 0.0133983
vn 0.0133983 -0.0169154 -0.0133983
vn -0.0172736 0.00695716 0.0172736
vn 0.0172736 -0.00695716 -0.0172736
vn 0.0119681 -0.00849841 0.0207293
vn -0.0119681 0.00849841 -0.0207293
vn -0.0119681 -0.00849841 0.0207293
vn 0.0119681 0.00849841 -0.0207293
vn -0.01779 -0.00349113 0.01779
vn 0.01779 0.00349113 -0.01779
vn -0.0169892 -0.00823979 0.0169892
vn 0.0169892 0.00823979 -0.0169892
vn -0.0131439 0.0203669 0.00758862
vn -0.019822 0.0110127 0.0114442
vn 0.0131439 -0.0203669 -0.00758862
vn 0.019822 -0.0110127 -0.0114442
vn -0.0161544 0.0172397 0.00932671
vn 0.0161544 -0.0172397 -0.00932671
vn -0.0228884 0.0110127 0
vn 0.0228884 -0.0110127 0
vn -0.0151772 0.0203669 0
vn 0.0151772 -0.0203669 0
vn -0.0210991 0.00718327 0.0121816
vn 0.0210991 -0.00718327 -0.0121816
vn -0.0186535 0.0172397 0
vn 0.0186535 -0.0172397 0
vn -0.019822 0.0110127 -0.0114442
vn 0.019822 -0.0110127 0.0114442
vn -0.0243631 0.00718327 0
vn 0.0243631 -0.00718327 0
vn -0.0131439 0.0203669 -0.00758862
vn 0.0131439 -0.0203669 0.00758862
vn -0.0251419 -0.00361183 0
vn 0.0251419 0.00361183 0
vn -0.0161544 0.0172397 -0.00932671
vn 0.0161544 -0.0172397 0.00932671
vn -0.0210991 0.00718327 -0.0121816
vn 0.0210991 -0.00718327 0.0121816
vn -0.0109708 0.0201108 -0.0109708
vn 0.0109708 -0.0201108 0.0109708
vn -0.0217735 -0.00361183 0.0125709
vn 0.0217735 0.00361183 -0.0125709
vn -0.0217735 -0.00361183 -0.0125709
vn 0.0217735 0.00361183 0.0125709
vn -0.0162874 0.0107051 -0.0162874
vn 0.0162874 -0.0107051 0.0162874
vn -0.0239361 -0.00849841 0
vn 0.0239361 0.00849841 0
vn -0.0133983 0.0169154 -0.0133983
vn 0.0133983 -0.0169154 0.0133983
vn -0.0172736 0.00695716 -0.0172736
vn 0.0172736 -0.00695716 0.0172736
vn -0.0207293 -0.00849841 0.0119681
vn 0.0207293 0.00849841 -0.0119681
vn -0.0207293 -0.00849841 -0.0119681
vn 0.0207293 0.00849841 0.0119681
vn -0.01779 -0.00349113 -0.01779
vn 0.01779 0.00349113 0.01779
vn -0.0169892 -0.00823979 -0.0169892
vn 0.0169892 0.00823979 0.0169892
vn -0.00758862 0.0203669 -0.0131439
vn -0.0114442 0.0110127 -0.019822
vn 0.00758862 -0.0203669 0.0131439
vn 0.0114442 -0.0110127 0.019822
vn -0.00932671 0.0172397 -0.0161544
vn 0.00932671 -0.0172397 0.0161544
vn 0 0.0110127 -0.0228884
vn 0 -0.0110127 0.0228884
vn 0 0.0203669 -0.0151772
vn 0 -0.0203669 0.0151772
vn -0.0121816 0.00718327 -0.0210991
vn 0.0121816 -0.00718327 0.0210991
vn 0 0.0172397 -0.0186535
vn 0 -0.0172397 0.0186535
vn 0.0114442 0.0110127 -0.019822
vn -0.0114442 -0.0110127 0.019822
vn 0 0.00718327 -0.0243631
vn 0 -0.00718327 0.0243631
vn 0.00758862 0.0203669 -0.0131439
vn -0.00758862 -0.0203669 0.0131439
vn 0 -0.00361183 -0.0251419
vn 0 0.00361183 0.0251419
vn 0.00932671 0.0172397 -0.0161544
vn -0.00932671 -0.0172397 0.0161544
vn 0.0121816 0.00718327 -0.0210991
vn -0.0121816 -0.00718327 0.0210991
vn -0.0125709 -0.00361183 -0.0217735
vn 0.0125709 0.00361183 0.0217735
vn 0.0125709 -0.00361183 -0.0217735
vn -0.0125709 0.00361183 0.0217735
vn 0 -0.00849841 -0.0239361
vn 0 0.00849841 0.0239361
vn -0.0119681 -0.00849841 -0.0207293
vn 0.0119681 0.00849841 0.0207293
vn 0.0119681 -0.00849841 -0.0207293
vn -0.0119681 0.00849841 0.0207293

# Mesh 'mesh1_mesh1-geometry' with 104 faces
g mesh1_mesh1-geometry
usemtl material_0_24
f  1//1 2//2 3//3
f  2//2 1//1 4//4
f  3//5 2//6 1//7
f  4//8 1//7 2//6
f  5//9 3//3 2//2
f  2//6 3//5 5//10
f  6//11 4//4 1//1
f  1//7 4//8 6//12
f  7//13 2//2 4//4
f  4//8 2//6 7//14
f  3//3 5//9 8//15
f  8//16 5//10 3//5
f  9//17 5//9 2//2
f  2//6 5//10 9//18
f  4//4 6//11 10//19
f  10//20 6//12 4//8
f  2//2 7//13 9//17
f  9//18 7//14 2//6
f  10//19 7//13 4//4
f  4//8 7//14 10//20
f  11//21 8//15 5//9
f  5//10 8//16 11//22
f  5//9 9//17 12//23
f  12//24 9//18 5//10
f  13//25 9//17 7//13
f  7//14 9//18 13//26
f  7//13 10//19 14//27
f  14//28 10//20 7//14
f  8//15 11//21 15//29
f  15//30 11//22 8//16
f  5//9 16//31 11//21
f  11//22 16//32 5//10
f  17//33 12//23 9//17
f  9//18 12//24 17//34
f  16//31 5//9 12//23
f  12//24 5//10 16//32
f  9//17 13//25 17//33
f  17//34 13//26 9//18
f  7//13 18//35 13//25
f  13//26 18//36 7//14
f  18//35 7//13 14//27
f  14//28 7//14 18//36
f  11//21 19//37 15//29
f  15//30 19//38 11//22
f  20//39 11//21 16//31
f  16//32 11//22 20//40
f  12//23 17//33 21//41
f  21//42 17//34 12//24
f  12//23 22//43 16//31
f  16//32 22//44 12//24
f  13//25 23//45 17//33
f  17//34 23//46 13//26
f  24//47 13//25 18//35
f  18//36 13//26 24//48
f  19//37 11//21 25//49
f  25//50 11//22 19//38
f  11//21 20//39 25//49
f  25//50 20//40 11//22
f  16//31 26//51 20//39
f  20//40 26//52 16//32
f  23//45 21//41 17//33
f  17//34 21//42 23//46
f  22//43 12//23 21//41
f  21//42 12//24 22//44
f  26//51 16//31 22//43
f  22//44 16//32 26//52
f  23//45 13//25 27//53
f  27//54 13//26 23//46
f  13//25 24//47 27//53
f  27//54 24//48 13//26
f  25//49 28//55 19//37
f  19//38 28//56 25//50
f  29//57 25//49 20//39
f  20//40 25//50 29//58
f  26//51 29//57 20//39
f  20//40 29//58 26//52
f  21//41 23//45 30//59
f  30//60 23//46 21//42
f  30//59 22//43 21//41
f  21//42 22//44 30//60
f  31//61 26//51 22//43
f  22//44 26//52 31//62
f  28//55 25//49 32//63
f  32//64 25//50 28//56
f  25//49 29//57 32//63
f  32//64 29//58 25//50
f  29//57 26//51 33//65
f  33//66 26//52 29//58
f  22//43 30//59 31//61
f  31//62 30//60 22//44
f  26//51 31//61 34//67
f  34//68 31//62 26//52
f  28//69 35//69 32//69
f  32//70 35//70 28//70
f  32//69 35//69 29//69
f  29//70 35//70 32//70
f  34//67 33//65 26//51
f  26//52 33//66 34//68
f  29//69 35//69 33//69
f  33//70 35//70 29//70
f  35//69 28//69 36//69
f  36//70 28//70 35//70
f  33//65 34//67 35//71
f  35//72 34//68 33//66

# Mesh 'mesh1_mesh1-geometry' with 104 faces
g mesh1_mesh1-geometry
usemtl material_0_24
f  27//53 37//73 23//45
f  37//73 27//53 38//74
f  23//46 37//75 27//54
f  38//76 27//54 37//75
f  39//77 23//45 37//73
f  37//75 23//46 39//78
f  24//47 38//74 27//53
f  27//54 38//76 24//48
f  40//79 37//73 38//74
f  38//76 37//75 40//80
f  23//45 39//77 30//59
f  30//60 39//78 23//46
f  41//81 39//77 37//73
f  37//75 39//78 41//82
f  38//74 24//47 42//83
f  42//84 24//48 38//76
f  37//73 40//79 41//81
f  41//82 40//80 37//75
f  42//83 40//79 38//74
f  38//76 40//80 42//84
f  43//85 30//59 39//77
f  39//78 30//60 43//86
f  39//77 41//81 44//87
f  44//88 41//82 39//78
f  45//89 41//81 40//79
f  40//80 41//82 45//90
f  40//79 42//83 46//91
f  46//92 42//84 40//80
f  30//59 43//85 31//61
f  31//62 43//86 30//60
f  39//77 47//93 43//85
f  43//86 47//94 39//78
f  48//95 44//87 41//81
f  41//82 44//88 48//96
f  47//93 39//77 44//87
f  44//88 39//78 47//94
f  41//81 45//89 48//95
f  48//96 45//90 41//82
f  40//79 49//97 45//89
f  45//90 49//98 40//80
f  49//97 40//79 46//91
f  46//92 40//80 49//98
f  43//85 34//67 31//61
f  31//62 34//68 43//86
f  50//99 43//85 47//93
f  47//94 43//86 50//100
f  44//87 48//95 51//101
f  51//102 48//96 44//88
f  44//87 52//103 47//93
f  47//94 52//104 44//88
f  45//89 53//105 48//95
f  48//96 53//106 45//90
f  54//12 45//89 49//97
f  49//98 45//90 54//11
f  34//67 43//85 55//107
f  55//108 43//86 34//68
f  43//85 50//99 55//107
f  55//108 50//100 43//86
f  47//93 56//109 50//99
f  50//100 56//110 47//94
f  53//105 51//101 48//95
f  48//96 51//102 53//106
f  52//103 44//87 51//101
f  51//102 44//88 52//104
f  56//109 47//93 52//103
f  52//104 47//94 56//110
f  53//105 45//89 57//111
f  57//112 45//90 53//106
f  45//89 54//12 57//111
f  57//112 54//11 45//90
f  55//107 35//71 34//67
f  34//68 35//72 55//108
f  58//113 55//107 50//99
f  50//100 55//108 58//114
f  56//109 58//113 50//99
f  50//100 58//114 56//110
f  51//101 53//105 59//115
f  59//116 53//106 51//102
f  59//115 52//103 51//101
f  51//102 52//104 59//116
f  60//117 56//109 52//103
f  52//104 56//110 60//118
f  35//71 55//107 61//119
f  61//120 55//108 35//72
f  55//107 58//113 61//119
f  61//120 58//114 55//108
f  58//113 56//109 62//121
f  62//122 56//110 58//114
f  52//103 59//115 60//117
f  60//118 59//116 52//104
f  56//109 60//117 63//123
f  63//124 60//118 56//110
f  35//69 64//69 61//69
f  61//70 64//70 35//70
f  61//69 64//69 58//69
f  58//70 64//70 61//70
f  63//123 62//121 56//109
f  56//110 62//122 63//124
f  58//69 64//69 62//69
f  62//70 64//70 58//70
f  64//69 35//69 36//69
f  36//70 35//70 64//70
f  62//121 63//123 64//125
f  64//126 63//124 62//122

# Mesh 'mesh1_mesh1-geometry' with 104 faces
g mesh1_mesh1-geometry
usemtl material_0_24
f  57//111 65//127 53//105
f  65//127 57//111 66//128
f  53//106 65//129 57//112
f  66//130 57//112 65//129
f  67//131 53//105 65//127
f  65//129 53//106 67//132
f  54//12 66//128 57//111
f  57//112 66//130 54//11
f  68//133 65//127 66//128
f  66//130 65//129 68//134
f  53//105 67//131 59//115
f  59//116 67//132 53//106
f  69//135 67//131 65//127
f  65//129 67//132 69//136
f  66//128 54//12 70//20
f  70//19 54//11 66//130
f  65//127 68//133 69//135
f  69//136 68//134 65//129
f  70//20 68//133 66//128
f  66//130 68//134 70//19
f  71//137 59//115 67//131
f  67//132 59//116 71//138
f  67//131 69//135 72//139
f  72//140 69//136 67//132
f  73//141 69//135 68//133
f  68//134 69//136 73//142
f  68//133 70//20 74//28
f  74//27 70//19 68//134
f  59//115 71//137 60//117
f  60//118 71//138 59//116
f  67//131 75//143 71//137
f  71//138 75//144 67//132
f  76//145 72//139 69//135
f  69//136 72//140 76//146
f  75//143 67//131 72//139
f  72//140 67//132 75//144
f  69//135 73//141 76//145
f  76//146 73//142 69//136
f  68//133 77//36 73//141
f  73//142 77//35 68//134
f  77//36 68//133 74//28
f  74//27 68//134 77//35
f  71//137 63//123 60//117
f  60//118 63//124 71//138
f  78//147 71//137 75//143
f  75//144 71//138 78//148
f  72//139 76//145 79//149
f  79//150 76//146 72//140
f  72//139 80//151 75//143
f  75//144 80//152 72//140
f  73//141 81//153 76//145
f  76//146 81//154 73//142
f  82//48 73//141 77//36
f  77//35 73//142 82//47
f  63//123 71//137 83//155
f  83//156 71//138 63//124
f  71//137 78//147 83//155
f  83//156 78//148 71//138
f  75//143 84//157 78//147
f  78//148 84//158 75//144
f  81//153 79//149 76//145
f  76//146 79//150 81//154
f  80//151 72//139 79//149
f  79//150 72//140 80//152
f  84//157 75//143 80//151
f  80//152 75//144 84//158
f  81//153 73//141 85//159
f  85//160 73//142 81//154
f  73//141 82//48 85//159
f  85//160 82//47 73//142
f  83//155 64//125 63//123
f  63//124 64//126 83//156
f  86//161 83//155 78//147
f  78//148 83//156 86//162
f  84//157 86//161 78//147
f  78//148 86//162 84//158
f  79//149 81//153 87//163
f  87//164 81//154 79//150
f  87//163 80//151 79//149
f  79//150 80//152 87//164
f  88//165 84//157 80//151
f  80//152 84//158 88//166
f  64//125 83//155 89//167
f  89//168 83//156 64//126
f  83//155 86//161 89//167
f  89//168 86//162 83//156
f  86//161 84//157 90//169
f  90//170 84//158 86//162
f  80//151 87//163 88//165
f  88//166 87//164 80//152
f  84//157 88//165 91//171
f  91//172 88//166 84//158
f  64//69 92//69 89//69
f  89//70 92//70 64//70
f  89//69 92//69 86//69
f  86//70 92//70 89//70
f  91//171 90//169 84//157
f  84//158 90//170 91//172
f  86//69 92//69 90//69
f  90//70 92//70 86//70
f  92//69 64//69 36//69
f  36//70 64//70 92//70
f  90//169 91//171 92//173
f  92//174 91//172 90//170

# Mesh 'mesh1_mesh1-geometry' with 104 faces
g mesh1_mesh1-geometry
usemtl material_0_24
f  85//159 93//175 81//153
f  93//175 85//159 94//176
f  81//154 93//177 85//160
f  94//178 85//160 93//177
f  95//179 81//153 93//175
f  93//177 81//154 95//180
f  82//48 94//176 85//159
f  85//160 94//178 82//47
f  96//181 93//175 94//176
f  94//178 93//177 96//182
f  81//153 95//179 87//163
f  87//164 95//180 81//154
f  97//183 95//179 93//175
f  93//177 95//180 97//184
f  94//176 82//48 98//84
f  98//83 82//47 94//178
f  93//175 96//181 97//183
f  97//184 96//182 93//177
f  98//84 96//181 94//176
f  94//178 96//182 98//83
f  99//185 87//163 95//179
f  95//180 87//164 99//186
f  95//179 97//183 100//187
f  100//188 97//184 95//180
f  101//189 97//183 96//181
f  96//182 97//184 101//190
f  96//181 98//84 102//92
f  102//91 98//83 96//182
f  87//163 99//185 88//165
f  88//166 99//186 87//164
f  95//179 103//191 99//185
f  99//186 103//192 95//180
f  104//193 100//187 97//183
f  97//184 100//188 104//194
f  103//191 95//179 100//187
f  100//188 95//180 103//192
f  97//183 101//189 104//193
f  104//194 101//190 97//184
f  96//181 105//98 101//189
f  101//190 105//97 96//182
f  105//98 96//181 102//92
f  102//91 96//182 105//97
f  99//185 91//171 88//165
f  88//166 91//172 99//186
f  106//195 99//185 103//191
f  103//192 99//186 106//196
f  100//187 104//193 107//197
f  107//198 104//194 100//188
f  100//187 108//199 103//191
f  103//192 108//200 100//188
f  101//189 3//3 104//193
f  104//194 3//5 101//190
f  6//11 101//189 105//98
f  105//97 101//190 6//12
f  91//171 99//185 109//201
f  109//202 99//186 91//172
f  99//185 106//195 109//201
f  109//202 106//196 99//186
f  103//191 110//203 106//195
f  106//196 110//204 103//192
f  3//3 107//197 104//193
f  104//194 107//198 3//5
f  108//199 100//187 107//197
f  107//198 100//188 108//200
f  110//203 103//191 108//199
f  108//200 103//192 110//204
f  3//3 101//189 1//1
f  1//7 101//190 3//5
f  101//189 6//11 1//1
f  1//7 6//12 101//190
f  109//201 92//173 91//171
f  91//172 92//174 109//202
f  111//205 109//201 106//195
f  106//196 109//202 111//206
f  110//203 111//205 106//195
f  106//196 111//206 110//204
f  107//197 3//3 8//15
f  8//16 3//5 107//198
f  8//15 108//199 107//197
f  107//198 108//200 8//16
f  15//29 110//203 108//199
f  108//200 110//204 15//30
f  92//173 109//201 112//207
f  112//208 109//202 92//174
f  109//201 111//205 112//207
f  112//208 111//206 109//202
f  111//205 110//203 113//209
f  113//210 110//204 111//206
f  108//199 8//15 15//29
f  15//30 8//16 108//200
f  110//203 15//29 19//37
f  19//38 15//30 110//204
f  92//69 28//69 112//69
f  112//70 28//70 92//70
f  112//69 28//69 111//69
f  111//70 28//70 112//70
f  19//37 113//209 110//203
f  110//204 113//210 19//38
f  111//69 28//69 113//69
f  113//70 28//70 111//70
f  28//69 92//69 36//69
f  36//70 92//70 28//70
f  113//209 19//37 28//55
f  28//56 19//38 113//210

