# File produced by Open Asset Import Library (http://www.assimp.sf.net)
# (assimp v3.2.202087883)

mtllib model_normalized.mtl

# 36 vertex positions
v 0.304604 0.206830 -0.270759
v 0.287681 0.206830 0.270759
v 0.287681 0.206830 -0.270759
v 0.304604 0.206830 0.270759
v 0.287681 0.206830 0.304604
v 0.287681 -0.266998 -0.270759
v 0.304604 0.240675 -0.304604
v 0.304604 -0.266998 0.270759
v -0.287681 0.206830 0.304604
v 0.287681 -0.266998 0.304604
v 0.304604 -0.266998 -0.270759
v 0.287681 0.206830 -0.304604
v 0.304604 0.240675 0.304604
v 0.304604 0.206830 -0.304604
v 0.287681 -0.266998 0.270759
v 0.304604 0.206830 0.304604
v 0.304604 -0.266998 -0.304604
v 0.287681 -0.266998 -0.304604
v -0.304604 0.240675 0.304604
v -0.304604 0.240675 -0.304604
v 0.304604 -0.266998 0.304604
v -0.287681 0.206830 0.270759
v -0.304604 0.206830 0.304604
v -0.287681 0.206830 -0.270759
v -0.287681 -0.266998 0.270759
v -0.304604 -0.266998 0.304604
v -0.287681 0.206830 -0.304604
v -0.304604 0.206830 0.270759
v -0.287681 -0.266998 0.304604
v -0.304604 0.206830 -0.304604
v -0.287681 -0.266998 -0.304604
v -0.304604 0.206830 -0.270759
v -0.304604 -0.266998 0.270759
v -0.287681 -0.266998 -0.270759
v -0.304604 -0.266998 -0.270759
v -0.304604 -0.266998 -0.304604

# 0 UV coordinates

# 6 vertex normals
vn 0 -0.0254 0
vn 0 0.0254 0
vn 0 0 0.0254
vn 0 0 -0.0254
vn 0.0254 0 0
vn -0.0254 -0 0

# Mesh 'mesh1_mesh1-geometry' with 136 faces
g mesh1_mesh1-geometry
usemtl material_0_24
f  1//1 2//1 3//1
f  2//1 1//1 4//1
f  3//2 2//2 1//2
f  4//2 1//2 2//2
f  5//1 3//1 2//1
f  2//2 3//2 5//2
f  6//3 1//3 3//3
f  3//4 1//4 6//4
f  7//5 4//5 1//5
f  1//6 4//6 7//6
f  8//4 2//4 4//4
f  4//3 2//3 8//3
f  9//1 3//1 5//1
f  5//2 3//2 9//2
f  2//6 10//6 5//6
f  5//5 10//5 2//5
f  1//3 6//3 11//3
f  11//4 6//4 1//4
f  12//6 6//6 3//6
f  3//5 6//5 12//5
f  13//5 4//5 7//5
f  7//6 4//6 13//6
f  7//5 1//5 14//5
f  14//6 1//6 7//6
f  2//4 8//4 15//4
f  15//3 8//3 2//3
f  16//5 8//5 4//5
f  4//6 8//6 16//6
f  9//1 12//1 3//1
f  3//2 12//2 9//2
f  5//3 13//3 9//3
f  9//4 13//4 5//4
f  10//6 2//6 15//6
f  15//5 2//5 10//5
f  10//3 16//3 5//3
f  5//4 16//4 10//4
f  6//1 17//1 11//1
f  11//2 17//2 6//2
f  17//5 1//5 11//5
f  11//6 1//6 17//6
f  6//6 12//6 18//6
f  18//5 12//5 6//5
f  4//5 13//5 16//5
f  16//6 13//6 4//6
f  7//2 19//2 13//2
f  13//1 19//1 7//1
f  1//5 17//5 14//5
f  14//6 17//6 1//6
f  14//4 20//4 7//4
f  7//3 20//3 14//3
f  8//1 10//1 15//1
f  15//2 10//2 8//2
f  8//5 16//5 21//5
f  21//6 16//6 8//6
f  22//1 12//1 9//1
f  9//2 12//2 22//2
f  13//3 5//3 16//3
f  16//4 5//4 13//4
f  9//3 13//3 23//3
f  23//4 13//4 9//4
f  16//3 10//3 21//3
f  21//4 10//4 16//4
f  17//1 6//1 18//1
f  18//2 6//2 17//2
f  12//4 17//4 18//4
f  18//3 17//3 12//3
f  19//2 7//2 20//2
f  20//1 7//1 19//1
f  23//3 13//3 19//3
f  19//4 13//4 23//4
f  17//4 12//4 14//4
f  14//3 12//3 17//3
f  12//4 20//4 14//4
f  14//3 20//3 12//3
f  10//1 8//1 21//1
f  21//2 8//2 10//2
f  24//1 12//1 22//1
f  22//2 12//2 24//2
f  9//5 25//5 22//5
f  22//6 25//6 9//6
f  26//3 9//3 23//3
f  23//4 9//4 26//4
f  20//6 23//6 19//6
f  19//5 23//5 20//5
f  27//4 20//4 12//4
f  12//3 20//3 27//3
f  12//1 24//1 27//1
f  27//2 24//2 12//2
f  28//1 24//1 22//1
f  22//2 24//2 28//2
f  25//5 9//5 29//5
f  29//6 9//6 25//6
f  25//4 28//4 22//4
f  22//3 28//3 25//3
f  9//3 26//3 29//3
f  29//4 26//4 9//4
f  28//6 26//6 23//6
f  23//5 26//5 28//5
f  23//6 20//6 28//6
f  28//5 20//5 23//5
f  20//4 27//4 30//4
f  30//3 27//3 20//3
f  24//5 31//5 27//5
f  27//6 31//6 24//6
f  24//1 28//1 32//1
f  32//2 28//2 24//2
f  26//1 25//1 29//1
f  29//2 25//2 26//2
f  28//4 25//4 33//4
f  33//3 25//3 28//3
f  26//6 28//6 33//6
f  33//5 28//5 26//5
f  28//6 20//6 32//6
f  32//5 20//5 28//5
f  31//4 30//4 27//4
f  27//3 30//3 31//3
f  32//6 20//6 30//6
f  30//5 20//5 32//5
f  31//5 24//5 34//5
f  34//6 24//6 31//6
f  35//3 24//3 32//3
f  32//4 24//4 35//4
f  25//1 26//1 33//1
f  33//2 26//2 25//2
f  30//4 31//4 36//4
f  36//3 31//3 30//3
f  30//6 35//6 32//6
f  32//5 35//5 30//5
f  24//3 35//3 34//3
f  34//4 35//4 24//4
f  35//1 31//1 34//1
f  34//2 31//2 35//2
f  31//1 35//1 36//1
f  36//2 35//2 31//2
f  35//6 30//6 36//6
f  36//5 30//5 35//5

# Mesh 'mesh2_mesh2-geometry' with 60 faces
g mesh2_mesh2-geometry
usemtl material_0_0
l  27 12
l  27 24
l  31 27
l  30 27
l  12 3
l  18 12
l  12 14
l  24 32
l  34 24
l  36 31
l  31 34
l  36 30
l  32 30
l  20 30
l  3 1
l  6 3
l  18 6
l  17 18
l  17 14
l  14 1
l  7 14
l  28 32
l  35 32
l  34 35
l  36 35
l  20 7
l  19 20
l  4 1
l  11 1
l  6 11
l  17 11
l  13 7
l  28 22
l  23 28
l  33 28
l  19 13
l  19 23
l  4 2
l  8 4
l  16 4
l  13 16
l  22 9
l  25 22
l  26 23
l  23 9
l  26 33
l  33 25
l  2 5
l  15 2
l  21 8
l  8 15
l  21 16
l  16 5
l  9 5
l  29 9
l  25 29
l  26 29
l  10 5
l  15 10
l  21 10

