# File produced by Open Asset Import Library (http://www.assimp.sf.net)
# (assimp v3.2.202087883)

mtllib model_normalized.mtl

# 76 vertex positions
v -0.246235 0.346580 0.246605
v 0.246235 0.325474 0.246605
v 0.246235 0.346580 0.246605
v -0.246235 0.325474 0.246605
v 0.246235 0.346580 -0.245864
v -0.246235 0.325474 -0.245864
v -0.232164 0.325474 0.232534
v 0.246235 0.325474 -0.245864
v -0.246235 0.346580 -0.245864
v 0.232164 0.325474 0.232534
v -0.232164 0.325474 0.211429
v -0.211058 0.325474 0.232534
v 0.232164 0.325474 0.211429
v 0.232164 0.325474 -0.231794
v -0.232164 0.325474 -0.210688
v -0.232164 0.276227 0.211429
v -0.211058 0.276227 0.232534
v 0.211058 0.325474 0.232534
v 0.232164 0.276227 0.211429
v 0.232164 0.325474 -0.210688
v 0.211058 0.325474 -0.231794
v -0.232164 0.325474 -0.231794
v -0.232164 0.276227 -0.210688
v -0.232164 -0.195136 0.211429
v -0.211058 -0.371018 0.232534
v 0.211058 0.276227 0.232534
v 0.232164 -0.371018 0.232534
v 0.232164 -0.195136 0.211429
v 0.232164 0.276227 -0.210688
v -0.211058 0.325474 -0.231794
v 0.211058 -0.371018 -0.231794
v -0.232164 -0.244383 0.211429
v -0.211058 0.276227 0.211429
v -0.232164 -0.371018 0.232534
v -0.211058 -0.244383 0.211429
v 0.211058 -0.371018 0.232534
v 0.232164 -0.244383 0.211429
v 0.232164 -0.371018 0.211429
v 0.232164 -0.195136 -0.210688
v -0.211058 0.276227 -0.231794
v 0.232164 -0.371018 -0.231794
v 0.211058 0.276227 -0.231794
v -0.232164 -0.371018 -0.231794
v -0.232164 -0.195136 -0.210688
v -0.232164 -0.371018 0.211429
v -0.211058 -0.195136 0.211429
v -0.232164 -0.244383 -0.210688
v -0.211058 0.276227 -0.210688
v -0.211058 -0.371018 0.211429
v 0.211058 0.276227 0.211429
v 0.211058 -0.371018 0.211429
v 0.211058 -0.195136 0.211429
v 0.211058 0.276227 -0.210688
v 0.232164 -0.244383 -0.210688
v 0.232164 -0.371018 -0.210688
v 0.211058 -0.244383 -0.210688
v -0.211058 -0.195136 -0.210688
v -0.211058 -0.195136 0.007406
v -0.211058 0.325474 -0.210688
v 0.211058 0.325474 0.211429
v 0.211058 -0.244383 0.211429
v 0.211058 -0.195136 -0.210688
v -0.211058 -0.371018 -0.231794
v 0.211058 -0.371018 -0.210688
v -0.232164 -0.371018 -0.210688
v -0.211058 -0.244383 -0.210688
v -0.211058 -0.195136 -0.013700
v -0.211058 -0.244383 0.007406
v -0.211058 0.325474 0.211429
v 0.211058 -0.244383 0.007406
v 0.211058 -0.195136 0.007406
v 0.211058 -0.195136 -0.013700
v -0.211058 -0.371018 -0.210688
v -0.211058 -0.244383 -0.013700
v 0.211058 0.325474 -0.210688
v 0.211058 -0.244383 -0.013700

# 92 UV coordinates
vt -0.229659 0.836614 0
vt -0 0.812008 0
vt -0 0.836614 0
vt -0.229659 0.812008 0
vt 0.229659 0.836614 0
vt 0.229659 0 0
vt 0 0.574147 0
vt 0 0 0
vt -0.006562 0.557743 0
vt 0.229659 0.812008 0
vt 0.229659 0.574147 0
vt -0.229659 0.574147 0
vt -0.006562 0.016404 0
vt -0.229659 0 0
vt -0.016404 0.557743 0
vt -0.006562 0.533136 0
vt -0.016404 0.016404 0
vt -0.223097 0.016404 0
vt -0.213255 0.557743 0
vt -0.016404 0.754593 0
vt -0.006562 0.812008 0
vt -0.016404 0.812008 0
vt -0.223097 0.812008 0
vt -0.213255 0.754593 0
vt -0.213255 0.812008 0
vt -0.006562 0.04101 0
vt 0.006562 0.812008 0
vt 0.016404 0.754593 0
vt 0.016404 0.812008 0
vt -0.213255 0.016404 0
vt -0.223097 0.04101 0
vt -0.223097 0.557743 0
vt -0.016404 0.205052 0
vt -0.213255 0 0
vt -0.006562 0 0
vt 0.016404 0.205052 0
vt 0.213255 0.812008 0
vt 0.213255 0.754593 0
vt 0.223097 0.812008 0
vt -0.223097 0.533136 0
vt 0.016404 0 0
vt -0.016404 0.147638 0
vt 0.223097 0.205052 0
vt 0.223097 0.754593 0
vt -0.016404 0.533136 0
vt -0.223097 0 0
vt 0.006562 0 0
vt 0.016404 0.147638 0
vt 0.006562 0.754593 0
vt -0.016404 0 0
vt 0.006562 0.205052 0
vt 0.213255 0.205052 0
vt 0.223097 0 0
vt -0.213255 0.205052 0
vt 0.223097 0.147638 0
vt -0.213255 0.147638 0
vt -0.223097 0.205052 0
vt -0.223097 0.147638 0
vt -0.213255 0.533136 0
vt -0.016404 0.04101 0
vt -0.006562 0.754593 0
vt 0.006562 0.147638 0
vt -0.006562 0.147638 0
vt -0.006562 0.205052 0
vt -0.213255 0.04101 0
vt 0.213255 0.147638 0
vt 0.213255 0 0
vt -0.223097 0.754593 0
vt 0.111549 0.533136 0
vt 0.016404 0.557743 0
vt 0.016404 0.533136 0
vt 0.111549 0.205052 0
vt 0.213255 0.016404 0
vt 0.016404 0.04101 0
vt 0.016404 0.016404 0
vt 0.213255 0.557743 0
vt 0.121391 0.533136 0
vt 0.213255 0.533136 0
vt -0.111549 0.533136 0
vt 0.111549 0.147638 0
vt -0.111549 0.04101 0
vt 0.111549 0.04101 0
vt -0.111549 0.205052 0
vt 0.121391 0.04101 0
vt 0.213255 0.04101 0
vt -0.121391 0.205052 0
vt -0.121391 0.533136 0
vt 0.121391 0.147638 0
vt 0.121391 0.205052 0
vt -0.121391 0.04101 0
vt -0.111549 0.147638 0
vt -0.121391 0.147638 0

# 6 vertex normals
vn 0 0 0.0254
vn 0.0254 0 0
vn 0 0.0254 0
vn -0.0254 0 0
vn 0 -0.0254 0
vn 0 0 -0.0254

# Mesh 'mesh1_mesh1-geometry' with 178 faces
g mesh1_mesh1-geometry
usemtl material_0_1_8
f  1/1/1 2/2/1 3/3/1
f  2/2/1 1/1/1 4/4/1
f  2/2/2 5/5/2 3/3/2
f  5/6/3 1/7/3 3/8/3
f  1/3/4 6/4/4 4/2/4
f  4/7/5 7/9/5 2/8/5
f  5/5/2 2/2/2 8/10/2
f  1/7/3 5/6/3 9/11/3
f  6/4/4 1/3/4 9/1/4
f  7/9/5 4/7/5 6/12/5
f  10/13/5 2/8/5 7/9/5
f  2/8/5 10/13/5 8/14/5
f  6/10/6 5/3/6 8/2/6
f  5/3/6 6/10/6 9/5/6
f  7/9/5 6/12/5 11/15/5
f  10/13/5 7/9/5 12/16/5
f  8/14/5 10/13/5 13/17/5
f  8/14/5 14/18/5 6/12/5
f  11/15/5 6/12/5 15/19/5
f  16/20/4 7/21/4 11/22/4
f  7/23/1 17/24/1 12/25/1
f  10/13/5 12/16/5 18/26/5
f  10/27/2 19/28/2 13/29/2
f  8/14/5 13/17/5 20/30/5
f  8/14/5 20/30/5 14/18/5
f  21/31/5 6/12/5 14/18/5
f  15/19/5 6/12/5 22/32/5
f  23/24/4 11/22/4 15/25/4
f  24/33/4 7/21/4 16/20/4
f  11/22/4 23/24/4 16/20/4
f  17/24/1 7/23/1 25/34/1
f  26/20/1 12/25/1 17/24/1
f  12/25/1 26/20/1 18/22/1
f  18/22/1 27/35/1 10/21/1
f  10/27/2 28/36/2 19/28/2
f  19/28/2 20/37/2 13/29/2
f  29/38/2 14/39/2 20/37/2
f  30/40/5 6/12/5 21/31/5
f  14/27/6 31/41/6 21/29/6
f  22/32/5 6/12/5 30/40/5
f  22/23/4 23/24/4 15/25/4
f  32/42/4 7/21/4 24/33/4
f  33/38/6 24/43/6 16/44/6
f  23/19/5 33/45/5 16/15/5
f  25/34/1 7/23/1 34/46/1
f  25/47/2 35/48/2 17/49/2
f  33/45/5 26/26/5 17/16/5
f  36/50/1 18/22/1 26/20/1
f  27/35/1 18/22/1 36/50/1
f  27/47/2 37/48/2 10/27/2
f  10/27/2 37/48/2 28/36/2
f  28/51/6 38/47/6 19/49/6
f  20/37/2 19/28/2 29/38/2
f  39/52/2 14/39/2 29/38/2
f  21/29/6 40/38/6 30/37/6
f  31/41/6 14/27/6 41/47/6
f  21/29/6 31/41/6 42/28/6
f  30/37/6 43/53/6 22/39/6
f  22/23/4 44/54/4 23/24/4
f  45/50/4 7/21/4 32/42/4
f  46/52/6 32/55/6 24/43/6
f  24/33/4 47/56/4 32/42/4
f  35/56/1 24/57/1 32/58/1
f  24/43/6 33/38/6 46/52/6
f  33/45/5 23/19/5 48/59/5
f  7/21/4 45/50/4 34/35/4
f  45/15/5 25/16/5 34/9/5
f  35/48/2 25/47/2 49/41/2
f  17/49/2 35/48/2 46/36/2
f  26/26/5 33/45/5 50/60/5
f  17/49/2 46/36/2 33/28/2
f  26/61/4 51/50/4 36/35/4
f  51/60/5 27/13/5 36/26/5
f  37/48/2 27/47/2 38/41/2
f  37/48/2 39/52/2 28/36/2
f  38/47/6 28/51/6 37/62/6
f  52/33/1 37/63/1 28/64/1
f  19/49/6 38/47/6 51/41/6
f  19/17/5 53/65/5 29/30/5
f  54/66/2 14/39/2 39/52/2
f  53/20/1 39/64/1 29/61/1
f  40/38/6 21/29/6 42/28/6
f  40/38/6 43/53/6 30/37/6
f  14/39/2 55/67/2 41/53/2
f  55/30/5 31/31/5 41/18/5
f  31/46/4 56/56/4 42/68/4
f  43/46/4 47/56/4 22/23/4
f  22/23/4 47/56/4 44/54/4
f  57/54/1 23/68/1 44/57/1
f  35/66/6 45/53/6 32/55/6
f  32/55/6 46/52/6 35/66/6
f  58/69/3 24/70/3 46/71/3
f  24/57/1 35/56/1 46/54/1
f  47/56/4 24/33/4 44/54/4
f  47/19/5 35/45/5 32/15/5
f  23/68/1 57/54/1 48/24/1
f  59/37/2 33/28/2 48/38/2
f  25/16/5 45/15/5 49/45/5
f  45/53/6 35/66/6 49/67/6
f  35/48/2 58/72/2 46/36/2
f  33/38/6 60/29/6 50/28/6
f  52/33/4 26/61/4 50/20/4
f  51/50/4 26/61/4 61/42/4
f  27/13/5 51/60/5 38/17/5
f  39/52/2 37/48/2 54/66/2
f  39/73/3 52/74/3 28/75/3
f  37/63/1 52/33/1 61/42/1
f  19/49/6 51/41/6 61/48/6
f  53/65/5 19/17/5 50/60/5
f  55/67/2 14/39/2 54/66/2
f  62/33/1 54/63/1 39/64/1
f  39/64/1 53/20/1 62/33/1
f  53/65/5 40/40/5 42/31/5
f  43/53/6 40/38/6 63/67/6
f  31/31/5 55/30/5 64/65/5
f  56/56/4 31/46/4 64/34/4
f  42/68/4 56/56/4 62/54/4
f  47/56/4 43/46/4 65/34/4
f  66/56/1 44/57/1 47/58/1
f  66/56/1 44/57/1 47/58/1
f  44/76/3 67/77/3 57/78/3
f  44/57/1 66/56/1 57/54/1
f  44/57/1 66/56/1 57/54/1
f  24/70/3 58/69/3 44/76/3
f  35/45/5 47/19/5 68/79/5
f  57/52/2 40/44/2 48/38/2
f  33/28/2 59/37/2 69/29/2
f  53/20/1 59/25/1 48/24/1
f  58/72/2 35/48/2 68/80/2
f  60/29/6 33/38/6 69/37/6
f  60/22/4 53/24/4 50/20/4
f  61/42/4 26/61/4 52/33/4
f  19/49/6 52/36/6 50/28/6
f  37/17/5 70/81/5 54/30/5
f  52/74/3 39/73/3 71/82/3
f  71/83/4 61/42/4 52/33/4
f  52/36/6 19/49/6 61/48/6
f  70/81/5 37/17/5 61/60/5
f  56/42/1 55/35/1 54/63/1
f  54/63/1 62/33/1 56/42/1
f  72/84/3 39/73/3 62/85/3
f  42/68/4 62/54/4 53/24/4
f  40/40/5 53/65/5 48/59/5
f  40/44/2 73/67/2 63/53/2
f  73/59/5 43/32/5 63/40/5
f  55/35/1 56/42/1 64/50/1
f  56/56/4 72/86/4 62/54/4
f  43/32/5 73/59/5 65/19/5
f  73/34/1 47/58/1 65/46/1
f  74/87/5 47/19/5 66/59/5
f  47/58/1 73/34/1 66/56/1
f  44/76/3 58/69/3 67/77/3
f  74/88/2 57/52/2 67/89/2
f  66/66/2 40/44/2 57/52/2
f  57/52/2 74/88/2 66/66/2
f  68/79/5 47/19/5 74/87/5
f  59/59/5 60/60/5 69/45/5
f  59/25/1 53/20/1 75/22/1
f  74/88/2 58/72/2 68/80/2
f  70/42/1 58/54/1 68/56/1
f  53/24/4 60/22/4 75/25/4
f  54/30/5 70/81/5 76/90/5
f  71/82/3 39/73/3 72/84/3
f  61/42/4 71/83/4 70/91/4
f  54/30/5 76/90/5 56/65/5
f  73/67/2 40/44/2 66/66/2
f  72/86/4 56/56/4 76/92/4
f  71/82/3 67/77/3 58/69/3
f  58/72/2 74/88/2 67/89/2
f  72/36/6 74/66/6 67/52/6
f  74/87/5 70/81/5 68/79/5
f  60/60/5 59/59/5 75/65/5
f  58/54/1 70/42/1 71/33/1
f  71/83/4 76/92/4 70/91/4
f  70/81/5 74/87/5 76/90/5
f  67/77/3 71/82/3 72/84/3
f  76/92/4 71/83/4 72/86/4
f  74/66/6 72/36/6 76/48/6

# Mesh 'mesh1_mesh1-geometry' with 178 faces
g mesh1_mesh1-geometry
usemtl material_1_24
f  3//6 2//6 1//6
f  4//6 1//6 2//6
f  3//4 5//4 2//4
f  3//5 1//5 5//5
f  4//2 6//2 1//2
f  2//3 7//3 4//3
f  8//4 2//4 5//4
f  9//5 5//5 1//5
f  9//2 1//2 6//2
f  6//3 4//3 7//3
f  7//3 2//3 10//3
f  8//3 10//3 2//3
f  8//1 5//1 6//1
f  9//1 6//1 5//1
f  11//3 6//3 7//3
f  12//3 7//3 10//3
f  13//3 10//3 8//3
f  6//3 14//3 8//3
f  15//3 6//3 11//3
f  11//2 7//2 16//2
f  12//6 17//6 7//6
f  18//3 12//3 10//3
f  13//4 19//4 10//4
f  20//3 13//3 8//3
f  14//3 20//3 8//3
f  14//3 6//3 21//3
f  22//3 6//3 15//3
f  15//2 11//2 23//2
f  16//2 7//2 24//2
f  16//2 23//2 11//2
f  25//6 7//6 17//6
f  17//6 12//6 26//6
f  18//6 26//6 12//6
f  10//6 27//6 18//6
f  19//4 28//4 10//4
f  13//4 20//4 19//4
f  20//4 14//4 29//4
f  21//3 6//3 30//3
f  21//1 31//1 14//1
f  30//3 6//3 22//3
f  15//2 23//2 22//2
f  24//2 7//2 32//2
f  16//1 24//1 33//1
f  16//3 33//3 23//3
f  34//6 7//6 25//6
f  17//4 35//4 25//4
f  17//3 26//3 33//3
f  26//6 18//6 36//6
f  36//6 18//6 27//6
f  10//4 37//4 27//4
f  28//4 37//4 10//4
f  19//1 38//1 28//1
f  29//4 19//4 20//4
f  29//4 14//4 39//4
f  30//1 40//1 21//1
f  41//1 14//1 31//1
f  42//1 31//1 21//1
f  22//1 43//1 30//1
f  23//2 44//2 22//2
f  32//2 7//2 45//2
f  24//1 32//1 46//1
f  32//2 47//2 24//2
f  32//6 24//6 35//6
f  46//1 33//1 24//1
f  48//3 23//3 33//3
f  34//2 45//2 7//2
f  34//3 25//3 45//3
f  49//4 25//4 35//4
f  46//4 35//4 17//4
f  50//3 33//3 26//3
f  33//4 46//4 17//4
f  36//2 51//2 26//2
f  36//3 27//3 51//3
f  38//4 27//4 37//4
f  28//4 39//4 37//4
f  37//1 28//1 38//1
f  28//6 37//6 52//6
f  51//1 38//1 19//1
f  29//3 53//3 19//3
f  39//4 14//4 54//4
f  29//6 39//6 53//6
f  42//1 21//1 40//1
f  30//1 43//1 40//1
f  41//4 55//4 14//4
f  41//3 31//3 55//3
f  42//2 56//2 31//2
f  22//2 47//2 43//2
f  44//2 47//2 22//2
f  44//6 23//6 57//6
f  32//1 45//1 35//1
f  35//1 46//1 32//1
f  46//5 24//5 58//5
f  46//6 35//6 24//6
f  44//2 24//2 47//2
f  32//3 35//3 47//3
f  48//6 57//6 23//6
f  48//4 33//4 59//4
f  49//3 45//3 25//3
f  49//1 35//1 45//1
f  46//4 58//4 35//4
f  50//1 60//1 33//1
f  50//2 26//2 52//2
f  61//2 26//2 51//2
f  38//3 51//3 27//3
f  54//4 37//4 39//4
f  28//5 52//5 39//5
f  61//6 52//6 37//6
f  61//1 51//1 19//1
f  50//3 19//3 53//3
f  54//4 14//4 55//4
f  39//6 54//6 62//6
f  62//6 53//6 39//6
f  42//3 40//3 53//3
f  63//1 40//1 43//1
f  64//3 55//3 31//3
f  64//2 31//2 56//2
f  62//2 56//2 42//2
f  65//2 43//2 47//2
f  47//6 44//6 66//6
f  47//6 44//6 66//6
f  57//5 67//5 44//5
f  57//6 66//6 44//6
f  57//6 66//6 44//6
f  44//5 58//5 24//5
f  68//3 47//3 35//3
f  48//4 40//4 57//4
f  69//4 59//4 33//4
f  48//6 59//6 53//6
f  68//4 35//4 58//4
f  69//1 33//1 60//1
f  50//2 53//2 60//2
f  52//2 26//2 61//2
f  50//1 52//1 19//1
f  54//3 70//3 37//3
f  71//5 39//5 52//5
f  52//2 61//2 71//2
f  61//1 19//1 52//1
f  61//3 37//3 70//3
f  54//6 55//6 56//6
f  56//6 62//6 54//6
f  62//5 39//5 72//5
f  53//2 62//2 42//2
f  48//3 53//3 40//3
f  63//4 73//4 40//4
f  63//3 43//3 73//3
f  64//6 56//6 55//6
f  62//2 72//2 56//2
f  65//3 73//3 43//3
f  65//6 47//6 73//6
f  66//3 47//3 74//3
f  66//6 73//6 47//6
f  67//5 58//5 44//5
f  67//4 57//4 74//4
f  57//4 40//4 66//4
f  66//4 74//4 57//4
f  74//3 47//3 68//3
f  69//3 60//3 59//3
f  75//6 53//6 59//6
f  68//4 58//4 74//4
f  68//6 58//6 70//6
f  75//2 60//2 53//2
f  76//3 70//3 54//3
f  72//5 39//5 71//5
f  70//2 71//2 61//2
f  56//3 76//3 54//3
f  66//4 40//4 73//4
f  76//2 56//2 72//2
f  58//5 67//5 71//5
f  67//4 74//4 58//4
f  67//1 74//1 72//1
f  68//3 70//3 74//3
f  75//3 59//3 60//3
f  71//6 70//6 58//6
f  70//2 76//2 71//2
f  76//3 74//3 70//3
f  72//5 71//5 67//5
f  72//2 71//2 76//2
f  76//1 72//1 74//1

