# File produced by Open Asset Import Library (http://www.assimp.sf.net)
# (assimp v3.2.202087883)

mtllib model_normalized.mtl

# 166 vertex positions
v 0.397653 -0.223851 0.127360
v 0.408119 -0.223851 0.148292
v 0.397653 -0.223851 0.148292
v 0.408119 -0.223851 0.127360
v 0.329622 0.111068 0.148292
v 0.359386 -0.060578 0.148292
v 0.329622 0.111068 0.127360
v 0.359386 -0.060578 0.127360
v 0.358405 -0.056391 0.148292
v 0.334856 0.111068 -0.165694
v 0.313923 -0.060578 0.127360
v 0.358405 -0.056391 0.127360
v 0.319156 0.111068 0.148292
v 0.313923 -0.060578 0.148292
v 0.334856 0.111068 0.169225
v 0.329622 0.111068 -0.123829
v 0.319156 0.111068 0.127360
v 0.308690 0.111068 0.148292
v 0.313923 -0.056391 0.148292
v 0.298224 0.111068 0.148292
v 0.334856 0.119441 -0.165694
v 0.298224 0.111068 -0.123829
v 0.329622 0.111068 -0.144762
v 0.268460 -0.060578 0.127360
v 0.313923 -0.056391 0.127360
v 0.308690 0.111068 0.127360
v 0.269442 -0.056391 0.148292
v 0.292991 0.111068 0.169225
v 0.334856 0.119441 0.169225
v 0.292991 0.111068 -0.165694
v 0.308690 0.111068 -0.123829
v 0.408119 -0.223851 -0.123829
v 0.268460 -0.060578 0.148292
v 0.292991 0.119441 0.169225
v 0.292991 0.119441 -0.165694
v 0.269442 -0.056391 -0.123829
v 0.319156 0.111068 -0.123829
v 0.408119 -0.223851 -0.144762
v 0.397653 -0.223851 -0.123829
v 0.319156 0.111068 -0.144762
v 0.230194 -0.223851 0.148292
v 0.269442 -0.056391 0.127360
v 0.298224 0.111068 -0.144762
v 0.219727 -0.223851 0.148292
v 0.298224 0.111068 0.127360
v 0.219727 -0.223851 -0.123829
v 0.308690 0.111068 -0.144762
v 0.358405 -0.056391 -0.123829
v 0.397653 -0.223851 -0.144762
v 0.359386 -0.060578 -0.123829
v 0.358405 -0.056391 -0.144762
v 0.230194 -0.223851 0.127360
v 0.219727 -0.223851 0.127360
v 0.219727 -0.223851 -0.144762
v 0.268460 -0.060578 -0.123829
v 0.269442 -0.056391 -0.144762
v 0.359386 -0.060578 -0.144762
v 0.230194 -0.223851 -0.123829
v 0.313923 -0.056391 -0.123829
v 0.313923 -0.056391 -0.144762
v 0.313923 -0.060578 -0.123829
v 0.313923 -0.060578 -0.144762
v 0.268460 -0.060578 -0.144762
v 0.230194 -0.223851 -0.144762
v 0.308690 0.119441 -0.144762
v 0.298224 0.119441 -0.123829
v 0.298224 0.119441 -0.144762
v 0.308690 0.119441 -0.123829
v 0.319156 0.119441 -0.123829
v 0.329622 0.119441 -0.123829
v 0.319156 0.119441 -0.144762
v 0.329622 0.119441 -0.144762
v 0.308690 0.119441 0.127360
v 0.298224 0.119441 0.127360
v 0.298224 0.119441 0.148292
v 0.319156 0.119441 0.148292
v 0.329622 0.119441 0.148292
v 0.319156 0.119441 0.127360
v 0.329622 0.119441 0.127360
v -0.334982 0.119441 0.169225
v -0.293117 0.111068 0.169225
v -0.293117 0.119441 0.169225
v -0.334982 0.111068 0.169225
v -0.293117 0.119441 -0.165694
v -0.334982 0.111068 -0.165694
v -0.329749 0.111068 0.148292
v -0.293117 0.111068 -0.165694
v -0.334982 0.119441 -0.165694
v -0.298350 0.111068 0.148292
v -0.329749 0.111068 0.127360
v -0.319282 0.111068 0.148292
v -0.298350 0.111068 0.127360
v -0.298350 0.111068 -0.144762
v -0.319282 0.111068 0.127360
v -0.408245 -0.223851 0.127360
v -0.358531 -0.056391 0.148292
v -0.308816 0.111068 0.148292
v -0.219853 -0.223851 0.148292
v -0.298350 0.111068 -0.123829
v -0.308816 0.111068 -0.144762
v -0.308816 0.111068 0.127360
v -0.358531 -0.056391 0.127360
v -0.408245 -0.223851 0.148292
v -0.269568 -0.056391 0.148292
v -0.219853 -0.223851 0.127360
v -0.230320 -0.223851 0.148292
v -0.329749 0.111068 -0.123829
v -0.219853 -0.223851 -0.123829
v -0.319282 0.111068 -0.144762
v -0.269568 -0.056391 -0.144762
v -0.397779 -0.223851 0.148292
v -0.359510 -0.060578 0.127360
v -0.359510 -0.060578 0.148292
v -0.268588 -0.060578 0.148292
v -0.269568 -0.056391 0.127360
v -0.230320 -0.223851 0.127360
v -0.319282 0.111068 -0.123829
v -0.219853 -0.223851 -0.144762
v -0.230320 -0.223851 -0.123829
v -0.329749 0.111068 -0.144762
v -0.308816 0.111068 -0.123829
v -0.268588 -0.060578 -0.144762
v -0.314049 -0.056391 0.127360
v -0.397779 -0.223851 0.127360
v -0.314049 -0.060578 0.148292
v -0.268588 -0.060578 0.127360
v -0.314049 -0.056391 0.148292
v -0.358531 -0.056391 -0.123829
v -0.230320 -0.223851 -0.144762
v -0.268588 -0.060578 -0.123829
v -0.358531 -0.056391 -0.144762
v -0.269568 -0.056391 -0.123829
v -0.314049 -0.060578 -0.144762
v -0.314049 -0.060578 0.127360
v -0.408245 -0.223851 -0.144762
v -0.408245 -0.223851 -0.123829
v -0.314049 -0.056391 -0.123829
v -0.314049 -0.056391 -0.144762
v -0.359510 -0.060578 -0.123829
v -0.314049 -0.060578 -0.123829
v -0.359510 -0.060578 -0.144762
v -0.397779 -0.223851 -0.123829
v -0.397779 -0.223851 -0.144762
v -0.329749 0.119441 -0.144762
v -0.319282 0.119441 -0.123829
v -0.298350 0.119441 0.127360
v -0.319282 0.119441 -0.144762
v -0.329749 0.119441 -0.123829
v -0.308816 0.119441 -0.144762
v -0.298350 0.119441 -0.144762
v -0.319282 0.119441 0.127360
v -0.329749 0.119441 0.127360
v -0.329749 0.119441 0.148292
v -0.308816 0.119441 -0.123829
v -0.298350 0.119441 -0.123829
v -0.308816 0.119441 0.148292
v -0.298350 0.119441 0.148292
v -0.308816 0.119441 0.127360
v -0.418711 0.119441 -0.207559
v 0.418585 0.119441 0.211090
v -0.418711 0.119441 0.211090
v 0.418585 0.119441 -0.207559
v -0.418711 0.127814 0.211090
v 0.418585 0.127814 -0.207559
v 0.418585 0.127814 0.211090
v -0.418711 0.127814 -0.207559

# 0 UV coordinates

# 10 vertex normals
vn 0 -1 0
vn 0 1 0
vn 0 0 1
vn 0 0 -1
vn -0.973616 -0.228191 0
vn 0.973616 0.228191 0
vn 1 0 0
vn -1 0 0
vn 0.973616 -0.228191 -0
vn -0.973616 0.228191 0

# Mesh 'mesh1_mesh1-geometry' with 288 faces
g mesh1_mesh1-geometry
usemtl material_0_24
f  1//1 2//1 3//1
f  2//1 1//1 4//1
f  3//2 2//2 1//2
f  4//2 1//2 2//2
f  5//3 3//3 2//3
f  2//4 3//4 5//4
f  6//5 1//5 3//5
f  3//6 1//6 6//6
f  1//4 7//4 4//4
f  4//3 7//3 1//3
f  7//6 2//6 4//6
f  4//5 2//5 7//5
f  3//3 5//3 6//3
f  6//4 5//4 3//4
f  2//6 7//6 5//6
f  5//5 7//5 2//5
f  1//5 6//5 8//5
f  8//6 6//6 1//6
f  7//4 1//4 8//4
f  8//3 1//3 7//3
f  6//3 5//3 9//3
f  9//4 5//4 6//4
f  10//1 5//1 7//1
f  7//2 5//2 10//2
f  6//1 11//1 8//1
f  8//2 11//2 6//2
f  9//5 8//5 6//5
f  6//6 8//6 9//6
f  7//4 8//4 12//4
f  12//3 8//3 7//3
f  9//3 5//3 13//3
f  13//4 5//4 9//4
f  9//3 14//3 6//3
f  6//4 14//4 9//4
f  15//1 5//1 10//1
f  10//2 5//2 15//2
f  10//1 7//1 16//1
f  16//2 7//2 10//2
f  11//1 6//1 14//1
f  14//2 6//2 11//2
f  11//4 12//4 8//4
f  8//3 12//3 11//3
f  8//5 9//5 12//5
f  12//6 9//6 8//6
f  7//4 12//4 17//4
f  17//3 12//3 7//3
f  5//1 18//1 13//1
f  13//2 18//2 5//2
f  13//5 12//5 9//5
f  9//6 12//6 13//6
f  14//3 9//3 19//3
f  19//4 9//4 14//4
f  5//1 15//1 20//1
f  20//2 15//2 5//2
f  21//7 15//7 10//7
f  10//8 15//8 21//8
f  16//1 7//1 22//1
f  22//2 7//2 16//2
f  10//1 16//1 23//1
f  23//2 16//2 10//2
f  14//1 24//1 11//1
f  11//2 24//2 14//2
f  19//8 11//8 14//8
f  14//7 11//7 19//7
f  12//4 11//4 25//4
f  25//3 11//3 12//3
f  12//2 19//2 9//2
f  9//1 19//1 12//1
f  12//5 13//5 17//5
f  17//6 13//6 12//6
f  17//1 22//1 7//1
f  7//2 22//2 17//2
f  5//1 20//1 18//1
f  18//2 20//2 5//2
f  26//1 13//1 18//1
f  18//2 13//2 26//2
f  27//3 14//3 19//3
f  19//4 14//4 27//4
f  28//1 20//1 15//1
f  15//2 20//2 28//2
f  15//7 21//7 29//7
f  29//8 21//8 15//8
f  30//4 21//4 10//4
f  10//3 21//3 30//3
f  16//1 22//1 31//1
f  31//2 22//2 16//2
f  32//6 23//6 16//6
f  16//5 23//5 32//5
f  10//1 23//1 30//1
f  30//2 23//2 10//2
f  24//1 14//1 33//1
f  33//2 14//2 24//2
f  24//4 25//4 11//4
f  11//3 25//3 24//3
f  11//8 19//8 25//8
f  25//7 19//7 11//7
f  19//2 12//2 25//2
f  25//1 12//1 19//1
f  13//1 26//1 17//1
f  17//2 26//2 13//2
f  17//1 30//1 22//1
f  22//2 30//2 17//2
f  20//3 27//3 18//3
f  18//4 27//4 20//4
f  27//9 26//9 18//9
f  18//10 26//10 27//10
f  14//3 27//3 33//3
f  33//4 27//4 14//4
f  25//2 27//2 19//2
f  19//1 27//1 25//1
f  20//1 28//1 30//1
f  30//2 28//2 20//2
f  15//3 34//3 28//3
f  28//4 34//4 15//4
f  21//2 34//2 29//2
f  29//1 34//1 21//1
f  34//3 15//3 29//3
f  29//4 15//4 34//4
f  21//4 30//4 35//4
f  35//3 30//3 21//3
f  22//3 36//3 31//3
f  31//4 36//4 22//4
f  16//1 31//1 37//1
f  37//2 31//2 16//2
f  23//6 32//6 38//6
f  38//5 32//5 23//5
f  16//3 39//3 32//3
f  32//4 39//4 16//4
f  40//1 30//1 23//1
f  23//2 30//2 40//2
f  41//9 24//9 33//9
f  33//10 24//10 41//10
f  42//9 33//9 24//9
f  24//10 33//10 42//10
f  25//4 24//4 42//4
f  42//3 24//3 25//3
f  26//1 30//1 17//1
f  17//2 30//2 26//2
f  22//1 30//1 43//1
f  43//2 30//2 22//2
f  27//3 20//3 44//3
f  44//4 20//4 27//4
f  26//9 27//9 42//9
f  42//10 27//10 26//10
f  27//3 44//3 33//3
f  33//4 44//4 27//4
f  33//9 42//9 27//9
f  27//10 42//10 33//10
f  27//2 25//2 42//2
f  42//1 25//1 27//1
f  34//8 30//8 28//8
f  28//7 30//7 34//7
f  20//1 30//1 45//1
f  45//2 30//2 20//2
f  34//2 21//2 35//2
f  35//1 21//1 34//1
f  30//8 34//8 35//8
f  35//7 34//7 30//7
f  36//3 22//3 46//3
f  46//4 22//4 36//4
f  36//9 47//9 31//9
f  31//10 47//10 36//10
f  47//1 37//1 31//1
f  31//2 37//2 47//2
f  48//3 16//3 37//3
f  37//4 16//4 48//4
f  32//1 49//1 38//1
f  38//2 49//2 32//2
f  49//4 23//4 38//4
f  38//3 23//3 49//3
f  39//3 16//3 50//3
f  50//4 16//4 39//4
f  49//1 32//1 39//1
f  39//2 32//2 49//2
f  47//1 30//1 40//1
f  40//2 30//2 47//2
f  23//4 51//4 40//4
f  40//3 51//3 23//3
f  24//9 41//9 52//9
f  52//10 41//10 24//10
f  33//3 44//3 41//3
f  41//4 44//4 33//4
f  53//4 42//4 24//4
f  24//3 42//3 53//3
f  45//1 30//1 26//1
f  26//2 30//2 45//2
f  43//1 30//1 47//1
f  47//2 30//2 43//2
f  54//10 22//10 43//10
f  43//9 22//9 54//9
f  20//10 53//10 44//10
f  44//9 53//9 20//9
f  42//4 45//4 26//4
f  26//3 45//3 42//3
f  53//10 20//10 45//10
f  45//9 20//9 53//9
f  22//10 54//10 46//10
f  46//9 54//9 22//9
f  36//3 46//3 55//3
f  55//4 46//4 36//4
f  47//9 36//9 56//9
f  56//10 36//10 47//10
f  37//1 47//1 40//1
f  40//2 47//2 37//2
f  50//3 16//3 48//3
f  48//4 16//4 50//4
f  37//5 51//5 48//5
f  48//6 51//6 37//6
f  23//4 49//4 57//4
f  57//3 49//3 23//3
f  50//5 49//5 39//5
f  39//6 49//6 50//6
f  23//4 57//4 51//4
f  51//3 57//3 23//3
f  51//5 37//5 40//5
f  40//6 37//6 51//6
f  41//1 53//1 52//1
f  52//2 53//2 41//2
f  53//4 24//4 52//4
f  52//3 24//3 53//3
f  53//1 41//1 44//1
f  44//2 41//2 53//2
f  45//4 42//4 53//4
f  53//3 42//3 45//3
f  56//4 43//4 47//4
f  47//3 43//3 56//3
f  43//4 56//4 54//4
f  54//3 56//3 43//3
f  54//1 58//1 46//1
f  46//2 58//2 54//2
f  55//3 46//3 58//3
f  58//4 46//4 55//4
f  55//9 56//9 36//9
f  36//10 56//10 55//10
f  55//3 59//3 36//3
f  36//4 59//4 55//4
f  36//2 60//2 56//2
f  56//1 60//1 36//1
f  48//5 57//5 50//5
f  50//6 57//6 48//6
f  48//3 61//3 50//3
f  50//4 61//4 48//4
f  57//5 48//5 51//5
f  51//6 48//6 57//6
f  51//2 59//2 48//2
f  48//1 59//1 51//1
f  49//5 50//5 57//5
f  57//6 50//6 49//6
f  62//4 51//4 57//4
f  57//3 51//3 62//3
f  54//4 56//4 63//4
f  63//3 56//3 54//3
f  58//1 54//1 64//1
f  64//2 54//2 58//2
f  58//9 63//9 55//9
f  55//10 63//10 58//10
f  56//9 55//9 63//9
f  63//10 55//10 56//10
f  59//3 55//3 61//3
f  61//4 55//4 59//4
f  60//2 36//2 59//2
f  59//1 36//1 60//1
f  60//4 63//4 56//4
f  56//3 63//3 60//3
f  50//1 62//1 57//1
f  57//2 62//2 50//2
f  61//3 48//3 59//3
f  59//4 48//4 61//4
f  62//1 50//1 61//1
f  61//2 50//2 62//2
f  59//2 51//2 60//2
f  60//1 51//1 59//1
f  51//4 62//4 60//4
f  60//3 62//3 51//3
f  54//4 63//4 64//4
f  64//3 63//3 54//3
f  63//9 58//9 64//9
f  64//10 58//10 63//10
f  63//1 61//1 55//1
f  55//2 61//2 63//2
f  59//8 62//8 61//8
f  61//7 62//7 59//7
f  62//8 59//8 60//8
f  60//7 59//7 62//7
f  63//4 60//4 62//4
f  62//3 60//3 63//3
f  61//1 63//1 62//1
f  62//2 63//2 61//2

# Mesh 'mesh2_mesh2-geometry' with 1 faces
g mesh2_mesh2-geometry
usemtl material_1_0
l  47 65

# Mesh 'mesh3_mesh3-geometry' with 1 faces
g mesh3_mesh3-geometry
usemtl material_1_0
l  22 66

# Mesh 'mesh4_mesh4-geometry' with 1 faces
g mesh4_mesh4-geometry
usemtl material_1_0
l  43 67

# Mesh 'mesh5_mesh5-geometry' with 1 faces
g mesh5_mesh5-geometry
usemtl material_1_0
l  31 68

# Mesh 'mesh6_mesh6-geometry' with 1 faces
g mesh6_mesh6-geometry
usemtl material_1_0
l  37 69

# Mesh 'mesh7_mesh7-geometry' with 1 faces
g mesh7_mesh7-geometry
usemtl material_1_0
l  16 70

# Mesh 'mesh8_mesh8-geometry' with 1 faces
g mesh8_mesh8-geometry
usemtl material_1_0
l  40 71

# Mesh 'mesh9_mesh9-geometry' with 1 faces
g mesh9_mesh9-geometry
usemtl material_1_0
l  23 72

# Mesh 'mesh10_mesh10-geometry' with 1 faces
g mesh10_mesh10-geometry
usemtl material_1_0
l  26 73

# Mesh 'mesh11_mesh11-geometry' with 1 faces
g mesh11_mesh11-geometry
usemtl material_1_0
l  45 74

# Mesh 'mesh12_mesh12-geometry' with 1 faces
g mesh12_mesh12-geometry
usemtl material_1_0
l  20 75

# Mesh 'mesh13_mesh13-geometry' with 1 faces
g mesh13_mesh13-geometry
usemtl material_1_0
l  13 76

# Mesh 'mesh14_mesh14-geometry' with 1 faces
g mesh14_mesh14-geometry
usemtl material_1_0
l  5 77

# Mesh 'mesh15_mesh15-geometry' with 1 faces
g mesh15_mesh15-geometry
usemtl material_1_0
l  17 78

# Mesh 'mesh16_mesh16-geometry' with 1 faces
g mesh16_mesh16-geometry
usemtl material_1_0
l  7 79

# Mesh 'mesh17_mesh17-geometry' with 288 faces
g mesh17_mesh17-geometry
usemtl material_0_24
f  80//3 81//3 82//3
f  81//3 80//3 83//3
f  82//4 81//4 80//4
f  83//4 80//4 81//4
f  81//7 84//7 82//7
f  82//8 84//8 81//8
f  84//2 80//2 82//2
f  82//1 80//1 84//1
f  80//8 85//8 83//8
f  83//7 85//7 80//7
f  83//1 86//1 81//1
f  81//2 86//2 83//2
f  84//7 81//7 87//7
f  87//8 81//8 84//8
f  80//2 84//2 88//2
f  88//1 84//1 80//1
f  85//8 80//8 88//8
f  88//7 80//7 85//7
f  86//1 83//1 85//1
f  85//2 83//2 86//2
f  89//1 81//1 86//1
f  86//2 81//2 89//2
f  81//1 89//1 87//1
f  87//2 89//2 81//2
f  85//4 84//4 87//4
f  87//3 84//3 85//3
f  84//4 85//4 88//4
f  88//3 85//3 84//3
f  86//1 85//1 90//1
f  90//2 85//2 86//2
f  89//1 86//1 91//1
f  91//2 86//2 89//2
f  87//1 89//1 92//1
f  92//2 89//2 87//2
f  87//1 93//1 85//1
f  85//2 93//2 87//2
f  90//1 85//1 94//1
f  94//2 85//2 90//2
f  95//10 86//10 90//10
f  90//9 86//9 95//9
f  86//3 96//3 91//3
f  91//4 96//4 86//4
f  89//1 91//1 97//1
f  97//2 91//2 89//2
f  98//6 92//6 89//6
f  89//5 92//5 98//5
f  87//1 92//1 99//1
f  99//2 92//2 87//2
f  87//1 99//1 93//1
f  93//2 99//2 87//2
f  100//1 85//1 93//1
f  93//2 85//2 100//2
f  94//1 85//1 101//1
f  101//2 85//2 94//2
f  102//4 90//4 94//4
f  94//3 90//3 102//3
f  86//10 95//10 103//10
f  103//9 95//9 86//9
f  90//4 102//4 95//4
f  95//3 102//3 90//3
f  96//3 86//3 103//3
f  103//4 86//4 96//4
f  96//9 94//9 91//9
f  91//10 94//10 96//10
f  94//1 97//1 91//1
f  91//2 97//2 94//2
f  104//3 89//3 97//3
f  97//4 89//4 104//4
f  92//6 98//6 105//6
f  105//5 98//5 92//5
f  89//3 106//3 98//3
f  98//4 106//4 89//4
f  99//1 92//1 107//1
f  107//2 92//2 99//2
f  108//6 93//6 99//6
f  99//5 93//5 108//5
f  109//1 85//1 100//1
f  100//2 85//2 109//2
f  93//4 110//4 100//4
f  100//3 110//3 93//3
f  101//1 85//1 92//1
f  92//2 85//2 101//2
f  97//1 94//1 101//1
f  101//2 94//2 97//2
f  94//9 96//9 102//9
f  102//10 96//10 94//10
f  95//1 111//1 103//1
f  103//2 111//2 95//2
f  95//4 102//4 112//4
f  112//3 102//3 95//3
f  96//3 103//3 113//3
f  113//4 103//4 96//4
f  114//3 89//3 104//3
f  104//4 89//4 114//4
f  97//5 115//5 104//5
f  104//6 115//6 97//6
f  98//1 116//1 105//1
f  105//2 116//2 98//2
f  116//4 92//4 105//4
f  105//3 92//3 116//3
f  106//3 89//3 114//3
f  114//4 89//4 106//4
f  116//1 98//1 106//1
f  106//2 98//2 116//2
f  92//1 85//1 107//1
f  107//2 85//2 92//2
f  99//1 107//1 117//1
f  117//2 107//2 99//2
f  93//6 108//6 118//6
f  118//5 108//5 93//5
f  99//3 119//3 108//3
f  108//4 119//4 99//4
f  120//1 85//1 109//1
f  109//2 85//2 120//2
f  121//1 109//1 100//1
f  100//2 109//2 121//2
f  93//4 122//4 110//4
f  110//3 122//3 93//3
f  110//5 121//5 100//5
f  100//6 121//6 110//6
f  92//4 115//4 101//4
f  101//3 115//3 92//3
f  115//5 97//5 101//5
f  101//6 97//6 115//6
f  96//2 123//2 102//2
f  102//1 123//1 96//1
f  113//9 102//9 96//9
f  96//10 102//10 113//10
f  111//1 95//1 124//1
f  124//2 95//2 111//2
f  113//3 103//3 111//3
f  111//4 103//4 113//4
f  123//4 112//4 102//4
f  102//3 112//3 123//3
f  102//9 113//9 112//9
f  112//10 113//10 102//10
f  95//4 112//4 124//4
f  124//3 112//3 95//3
f  125//3 96//3 113//3
f  113//4 96//4 125//4
f  104//5 126//5 114//5
f  114//6 126//6 104//6
f  104//3 125//3 114//3
f  114//4 125//4 104//4
f  115//2 127//2 104//2
f  104//1 127//1 115//1
f  126//5 104//5 115//5
f  115//6 104//6 126//6
f  92//4 116//4 126//4
f  126//3 116//3 92//3
f  114//5 116//5 106//5
f  106//6 116//6 114//6
f  107//1 85//1 120//1
f  120//2 85//2 107//2
f  107//3 128//3 117//3
f  117//4 128//4 107//4
f  99//1 117//1 121//1
f  121//2 117//2 99//2
f  108//1 129//1 118//1
f  118//2 129//2 108//2
f  129//4 93//4 118//4
f  118//3 93//3 129//3
f  119//3 99//3 130//3
f  130//4 99//4 119//4
f  129//1 108//1 119//1
f  119//2 108//2 129//2
f  131//4 120//4 109//4
f  109//3 120//3 131//3
f  109//1 121//1 117//1
f  117//2 121//2 109//2
f  93//4 129//4 122//4
f  122//3 129//3 93//3
f  122//5 132//5 110//5
f  110//6 132//6 122//6
f  133//4 110//4 122//4
f  122//3 110//3 133//3
f  121//5 110//5 132//5
f  132//6 110//6 121//6
f  92//4 126//4 115//4
f  115//3 126//3 92//3
f  123//2 96//2 127//2
f  127//1 96//1 123//1
f  112//9 111//9 124//9
f  124//10 111//10 112//10
f  111//9 112//9 113//9
f  113//10 112//10 111//10
f  112//4 123//4 134//4
f  134//3 123//3 112//3
f  112//1 125//1 113//1
f  113//2 125//2 112//2
f  96//3 125//3 127//3
f  127//4 125//4 96//4
f  114//1 134//1 126//1
f  126//2 134//2 114//2
f  116//5 114//5 126//5
f  126//6 114//6 116//6
f  125//3 104//3 127//3
f  127//4 104//4 125//4
f  134//1 114//1 125//1
f  125//2 114//2 134//2
f  127//2 115//2 123//2
f  123//1 115//1 127//1
f  134//4 115//4 126//4
f  126//3 115//3 134//3
f  135//10 107//10 120//10
f  120//9 107//9 135//9
f  128//3 107//3 136//3
f  136//4 107//4 128//4
f  128//9 109//9 117//9
f  117//10 109//10 128//10
f  132//3 99//3 121//3
f  121//4 99//4 132//4
f  130//3 99//3 132//3
f  132//4 99//4 130//4
f  130//5 129//5 119//5
f  119//6 129//6 130//6
f  120//4 131//4 135//4
f  135//3 131//3 120//3
f  109//9 128//9 131//9
f  131//10 128//10 109//10
f  129//5 130//5 122//5
f  122//6 130//6 129//6
f  132//5 122//5 130//5
f  130//6 122//6 132//6
f  110//2 137//2 132//2
f  132//1 137//1 110//1
f  110//4 133//4 138//4
f  138//3 133//3 110//3
f  130//1 133//1 122//1
f  122//2 133//2 130//2
f  134//8 127//8 123//8
f  123//7 127//7 134//7
f  115//4 134//4 123//4
f  123//3 134//3 115//3
f  125//1 112//1 134//1
f  134//2 112//2 125//2
f  127//8 134//8 125//8
f  125//7 134//7 127//7
f  107//10 135//10 136//10
f  136//9 135//9 107//9
f  128//3 136//3 139//3
f  139//4 136//4 128//4
f  132//3 140//3 130//3
f  130//4 140//4 132//4
f  135//4 131//4 141//4
f  141//3 131//3 135//3
f  128//2 138//2 131//2
f  131//1 138//1 128//1
f  139//9 131//9 128//9
f  128//10 131//10 139//10
f  137//2 110//2 138//2
f  138//1 110//1 137//1
f  140//3 132//3 137//3
f  137//4 132//4 140//4
f  141//4 138//4 133//4
f  133//3 138//3 141//3
f  133//8 137//8 138//8
f  138//7 137//7 133//7
f  133//1 130//1 140//1
f  140//2 130//2 133//2
f  135//1 142//1 136//1
f  136//2 142//2 135//2
f  139//3 136//3 142//3
f  142//4 136//4 139//4
f  139//3 137//3 128//3
f  128//4 137//4 139//4
f  138//4 141//4 131//4
f  131//3 141//3 138//3
f  131//9 139//9 141//9
f  141//10 139//10 131//10
f  135//4 141//4 143//4
f  143//3 141//3 135//3
f  138//2 128//2 137//2
f  137//1 128//1 138//1
f  137//3 139//3 140//3
f  140//4 139//4 137//4
f  137//8 133//8 140//8
f  140//7 133//7 137//7
f  140//1 141//1 133//1
f  133//2 141//2 140//2
f  142//1 135//1 143//1
f  143//2 135//2 142//2
f  142//9 141//9 139//9
f  139//10 141//10 142//10
f  141//1 140//1 139//1
f  139//2 140//2 141//2
f  141//9 142//9 143//9
f  143//10 142//10 141//10

# Mesh 'mesh18_mesh18-geometry' with 1 faces
g mesh18_mesh18-geometry
usemtl material_1_0
l  120 144

# Mesh 'mesh19_mesh19-geometry' with 1 faces
g mesh19_mesh19-geometry
usemtl material_1_0
l  117 145

# Mesh 'mesh20_mesh20-geometry' with 1 faces
g mesh20_mesh20-geometry
usemtl material_1_0
l  92 146

# Mesh 'mesh21_mesh21-geometry' with 1 faces
g mesh21_mesh21-geometry
usemtl material_1_0
l  109 147

# Mesh 'mesh22_mesh22-geometry' with 1 faces
g mesh22_mesh22-geometry
usemtl material_1_0
l  107 148

# Mesh 'mesh23_mesh23-geometry' with 1 faces
g mesh23_mesh23-geometry
usemtl material_1_0
l  100 149

# Mesh 'mesh24_mesh24-geometry' with 1 faces
g mesh24_mesh24-geometry
usemtl material_1_0
l  93 150

# Mesh 'mesh25_mesh25-geometry' with 1 faces
g mesh25_mesh25-geometry
usemtl material_1_0
l  94 151

# Mesh 'mesh26_mesh26-geometry' with 1 faces
g mesh26_mesh26-geometry
usemtl material_1_0
l  90 152

# Mesh 'mesh27_mesh27-geometry' with 1 faces
g mesh27_mesh27-geometry
usemtl material_1_0
l  86 153

# Mesh 'mesh28_mesh28-geometry' with 1 faces
g mesh28_mesh28-geometry
usemtl material_1_0
l  121 154

# Mesh 'mesh29_mesh29-geometry' with 1 faces
g mesh29_mesh29-geometry
usemtl material_1_0
l  99 155

# Mesh 'mesh30_mesh30-geometry' with 1 faces
g mesh30_mesh30-geometry
usemtl material_1_0
l  97 156

# Mesh 'mesh31_mesh31-geometry' with 1 faces
g mesh31_mesh31-geometry
usemtl material_1_0
l  89 157

# Mesh 'mesh32_mesh32-geometry' with 1 faces
g mesh32_mesh32-geometry
usemtl material_1_0
l  101 158

# Mesh 'mesh33_mesh33-geometry' with 24 faces
g mesh33_mesh33-geometry
usemtl material_0_24
f  159//1 160//1 161//1
f  160//1 159//1 162//1
f  161//2 160//2 159//2
f  162//2 159//2 160//2
f  160//3 163//3 161//3
f  161//4 163//4 160//4
f  163//8 159//8 161//8
f  161//7 159//7 163//7
f  159//4 164//4 162//4
f  162//3 164//3 159//3
f  164//7 160//7 162//7
f  162//8 160//8 164//8
f  163//3 160//3 165//3
f  165//4 160//4 163//4
f  159//8 163//8 166//8
f  166//7 163//7 159//7
f  164//4 159//4 166//4
f  166//3 159//3 164//3
f  160//7 164//7 165//7
f  165//8 164//8 160//8
f  164//2 163//2 165//2
f  165//1 163//1 164//1
f  163//2 164//2 166//2
f  166//1 164//1 163//1

