# File produced by Open Asset Import Library (http://www.assimp.sf.net)
# (assimp v3.2.202087883)

mtllib model_normalized.mtl

# 80 vertex positions
v -0.275880 -0.395691 0.174861
v -0.291644 -0.395691 0.190626
v -0.291644 -0.395691 0.174861
v -0.275880 -0.395691 0.190626
v -0.291644 0.093011 0.174861
v -0.275880 0.093011 0.190626
v -0.291644 0.093011 0.190626
v -0.275880 0.093011 0.174861
v -0.291644 0.093011 -0.187724
v -0.275880 0.093011 -0.187724
v -0.216395 0.093011 -0.253347
v -0.277840 0.093011 0.248322
v -0.291644 0.093011 -0.203488
v -0.216426 0.093011 0.256659
v -0.338938 0.093011 0.237920
v -0.275880 0.093011 -0.203488
v -0.291644 -0.395691 -0.187724
v -0.154766 0.093011 0.262920
v -0.277840 0.108776 0.248322
v -0.216426 0.108776 0.256659
v -0.338938 0.093011 -0.235017
v -0.275880 -0.395691 -0.203488
v -0.277818 0.093011 -0.245193
v -0.291644 -0.395691 -0.203488
v -0.275880 -0.395691 -0.187724
v -0.154736 0.093011 -0.259471
v -0.154766 0.108776 0.262920
v -0.338938 0.108776 0.237920
v -0.338938 0.108776 -0.235017
v -0.277818 0.108776 -0.245193
v -0.216395 0.108776 -0.253347
v -0.092930 0.093011 0.267097
v -0.092930 0.108776 0.267097
v -0.154736 0.108776 -0.259471
v -0.092909 0.093011 -0.263556
v -0.030989 0.093011 0.269187
v -0.030989 0.108776 0.269187
v -0.092909 0.108776 -0.263556
v -0.030981 0.093011 -0.265600
v 0.030989 0.093011 0.269187
v 0.030989 0.108776 0.269187
v -0.030981 0.108776 -0.265600
v 0.030981 0.093011 -0.265600
v 0.092909 0.093011 -0.263556
v 0.092930 0.108776 0.267097
v 0.030981 0.108776 -0.265600
v 0.092930 0.093011 0.267097
v 0.092909 0.108776 -0.263556
v 0.154736 0.093011 -0.259471
v 0.154766 0.108776 0.262920
v 0.154736 0.108776 -0.259471
v 0.154766 0.093011 0.262920
v 0.216395 0.093011 -0.253347
v 0.216426 0.108776 0.256659
v 0.216395 0.108776 -0.253347
v 0.216426 0.093011 0.256659
v 0.277818 0.093011 -0.245193
v 0.277841 0.108776 0.248322
v 0.277818 0.108776 -0.245193
v 0.275880 0.093011 -0.187724
v 0.277841 0.093011 0.248322
v 0.291644 0.093011 -0.187724
v 0.275880 0.093011 0.190626
v 0.338938 0.108776 0.237920
v 0.338938 0.108776 -0.235017
v 0.338938 0.093011 -0.235017
v 0.275880 0.093011 -0.171959
v 0.291644 -0.395691 -0.187724
v 0.291644 0.093011 0.190626
v 0.338938 0.093011 0.237920
v 0.291644 0.093011 -0.171959
v 0.275880 -0.395691 -0.171959
v 0.275880 -0.395691 -0.187724
v 0.275880 0.093011 0.174861
v 0.291644 0.093011 0.174861
v 0.275880 -0.395691 0.190626
v 0.291644 -0.395691 -0.171959
v 0.291644 -0.395691 0.174861
v 0.291644 -0.395691 0.190626
v 0.275880 -0.395691 0.174861

# 0 UV coordinates

# 54 vertex normals
vn 0 -0.0254 0
vn 0 0.0254 0
vn -0.0254 0 0
vn 0.0254 0 0
vn 0 0 -0.0254
vn -0 -0 0.0254
vn -0.00384051 0 0.025108
vn -0.00426339 0 0.0250397
vn 0.00384051 0 -0.025108
vn 0.00426339 0 -0.0250397
vn -0.00299159 0 0.0252232
vn 0.00299159 0 -0.0252232
vn -0.00213929 0 0.0253098
vn 0.00213929 0 -0.0253098
vn -0.00375745 0 -0.0251205
vn -0.00292671 0 -0.0252308
vn 0.00375745 0 0.0251205
vn 0.00292671 0 0.0252308
vn -0.00209278 0 -0.0253136
vn 0.00209278 0 0.0253136
vn -0.00128455 0 0.0253675
vn 0.00128455 0 -0.0253675
vn -0.00417134 0 -0.0250551
vn 0.00417134 0 0.0250551
vn -0.00125659 0 -0.0253689
vn 0.00125659 0 0.0253689
vn -0.000428346 0 0.0253964
vn 0.000428346 0 -0.0253964
vn -0.000419024 0 -0.0253965
vn 0.000419024 0 0.0253965
vn 0.000428346 0 0.0253964
vn -0.000428346 0 -0.0253964
vn 0.000419024 0 -0.0253965
vn -0.000419024 -0 0.0253965
vn 0.00128455 0 0.0253675
vn -0.00128455 0 -0.0253675
vn 0.00125659 0 -0.0253689
vn -0.00125659 -0 0.0253689
vn 0.00213929 0 0.0253098
vn -0.00213929 0 -0.0253098
vn 0.00209278 0 -0.0253136
vn -0.00209278 -0 0.0253136
vn 0.00299159 0 0.0252232
vn -0.00299159 0 -0.0252232
vn 0.00292671 0 -0.0252308
vn -0.00292671 -0 0.0252308
vn 0.00384051 0 0.025108
vn -0.00384051 0 -0.025108
vn 0.00375745 0 -0.0251205
vn -0.00375745 -0 0.0251205
vn 0.00426339 0 0.0250397
vn -0.00426339 0 -0.0250397
vn 0.00417134 0 -0.0250551
vn -0.00417134 -0 0.0250551

# Mesh 'mesh1_mesh1-geometry' with 328 faces
g mesh1_mesh1-geometry
usemtl material_0_24
f  1//1 2//1 3//1
f  2//1 1//1 4//1
f  3//2 2//2 1//2
f  4//2 1//2 2//2
f  2//3 5//3 3//3
f  3//4 5//4 2//4
f  5//5 1//5 3//5
f  3//6 1//6 5//6
f  1//4 6//4 4//4
f  4//3 6//3 1//3
f  6//6 2//6 4//6
f  4//5 2//5 6//5
f  5//3 2//3 7//3
f  7//4 2//4 5//4
f  1//5 5//5 8//5
f  8//6 5//6 1//6
f  6//4 1//4 8//4
f  8//3 1//3 6//3
f  2//6 6//6 7//6
f  7//5 6//5 2//5
f  8//1 7//1 5//1
f  5//2 7//2 8//2
f  7//1 9//1 5//1
f  5//2 9//2 7//2
f  5//1 10//1 8//1
f  8//2 10//2 5//2
f  7//1 8//1 6//1
f  6//2 8//2 7//2
f  8//1 11//1 6//1
f  6//2 11//2 8//2
f  12//1 7//1 6//1
f  6//2 7//2 12//2
f  7//1 13//1 9//1
f  9//2 13//2 7//2
f  10//1 5//1 9//1
f  9//2 5//2 10//2
f  10//1 11//1 8//1
f  8//2 11//2 10//2
f  6//1 11//1 14//1
f  14//2 11//2 6//2
f  15//1 7//1 12//1
f  12//2 7//2 15//2
f  12//1 6//1 14//1
f  14//2 6//2 12//2
f  7//1 15//1 13//1
f  13//2 15//2 7//2
f  16//1 9//1 13//1
f  13//2 9//2 16//2
f  13//3 17//3 9//3
f  9//4 17//4 13//4
f  9//1 16//1 10//1
f  10//2 16//2 9//2
f  17//6 10//6 9//6
f  9//5 10//5 17//5
f  16//1 11//1 10//1
f  10//2 11//2 16//2
f  14//1 11//1 18//1
f  18//2 11//2 14//2
f  19//7 15//8 12//7
f  12//9 15//10 19//9
f  20//11 12//7 14//11
f  14//12 12//9 20//12
f  21//1 13//1 15//1
f  15//2 13//2 21//2
f  22//5 13//5 16//5
f  16//6 13//6 22//6
f  13//1 23//1 16//1
f  16//2 23//2 13//2
f  17//3 13//3 24//3
f  24//4 13//4 17//4
f  10//4 22//4 16//4
f  16//3 22//3 10//3
f  10//6 17//6 25//6
f  25//5 17//5 10//5
f  16//1 23//1 11//1
f  11//2 23//2 16//2
f  18//1 11//1 26//1
f  26//2 11//2 18//2
f  27//13 14//11 18//13
f  18//14 14//12 27//14
f  15//8 19//7 28//8
f  28//10 19//9 15//10
f  12//7 20//11 19//7
f  19//9 20//12 12//9
f  14//11 27//13 20//11
f  20//12 27//14 14//12
f  13//1 21//1 23//1
f  23//2 21//2 13//2
f  15//3 29//3 21//3
f  21//4 29//4 15//4
f  13//5 22//5 24//5
f  24//6 22//6 13//6
f  22//1 17//1 24//1
f  24//2 17//2 22//2
f  22//4 10//4 25//4
f  25//3 10//3 22//3
f  17//1 22//1 25//1
f  25//2 22//2 17//2
f  30//15 11//16 23//15
f  23//17 11//18 30//17
f  31//16 26//19 11//16
f  11//18 26//20 31//18
f  18//1 26//1 32//1
f  32//2 26//2 18//2
f  18//13 33//21 27//13
f  27//14 33//22 18//14
f  19//2 29//2 28//2
f  28//1 29//1 19//1
f  29//3 15//3 28//3
f  28//4 15//4 29//4
f  30//2 19//2 20//2
f  20//1 19//1 30//1
f  31//2 20//2 27//2
f  27//1 20//1 31//1
f  29//23 23//15 21//23
f  21//24 23//17 29//24
f  11//16 30//15 31//16
f  31//18 30//17 11//18
f  23//15 29//23 30//15
f  30//17 29//24 23//17
f  26//19 31//16 34//19
f  34//20 31//18 26//20
f  32//1 26//1 35//1
f  35//2 26//2 32//2
f  33//21 18//13 32//21
f  32//22 18//14 33//22
f  34//2 27//2 33//2
f  33//1 27//1 34//1
f  29//2 19//2 30//2
f  30//1 19//1 29//1
f  30//2 20//2 31//2
f  31//1 20//1 30//1
f  31//2 27//2 34//2
f  34//1 27//1 31//1
f  34//19 35//25 26//19
f  26//20 35//26 34//20
f  32//1 35//1 36//1
f  36//2 35//2 32//2
f  32//21 37//27 33//21
f  33//22 37//28 32//22
f  34//2 33//2 38//2
f  38//1 33//1 34//1
f  35//25 34//19 38//25
f  38//26 34//20 35//26
f  36//1 35//1 39//1
f  39//2 35//2 36//2
f  37//27 32//21 36//27
f  36//28 32//22 37//28
f  38//2 33//2 37//2
f  37//1 33//1 38//1
f  38//25 39//29 35//25
f  35//26 39//30 38//26
f  36//1 39//1 40//1
f  40//2 39//2 36//2
f  36//27 41//31 37//27
f  37//28 41//32 36//28
f  38//2 37//2 42//2
f  42//1 37//1 38//1
f  39//29 38//25 42//29
f  42//30 38//26 39//30
f  40//1 39//1 43//1
f  43//2 39//2 40//2
f  41//31 36//27 40//31
f  40//32 36//28 41//32
f  42//2 37//2 41//2
f  41//1 37//1 42//1
f  42//29 43//33 39//29
f  39//30 43//34 42//30
f  40//1 43//1 44//1
f  44//2 43//2 40//2
f  40//31 45//35 41//31
f  41//32 45//36 40//32
f  42//2 41//2 46//2
f  46//1 41//1 42//1
f  43//33 42//29 46//33
f  46//34 42//30 43//34
f  46//33 44//37 43//33
f  43//34 44//38 46//34
f  40//1 44//1 47//1
f  47//2 44//2 40//2
f  45//35 40//31 47//35
f  47//36 40//32 45//36
f  48//2 41//2 45//2
f  45//1 41//1 48//1
f  46//2 41//2 48//2
f  48//1 41//1 46//1
f  44//37 46//33 48//37
f  48//38 46//34 44//38
f  47//1 44//1 49//1
f  49//2 44//2 47//2
f  47//35 50//39 45//35
f  45//36 50//40 47//36
f  48//2 45//2 51//2
f  51//1 45//1 48//1
f  48//37 49//41 44//37
f  44//38 49//42 48//38
f  47//1 49//1 52//1
f  52//2 49//2 47//2
f  50//39 47//35 52//39
f  52//40 47//36 50//40
f  51//2 45//2 50//2
f  50//1 45//1 51//1
f  49//41 48//37 51//41
f  51//42 48//38 49//42
f  52//1 49//1 53//1
f  53//2 49//2 52//2
f  52//39 54//43 50//39
f  50//40 54//44 52//40
f  51//2 50//2 55//2
f  55//1 50//1 51//1
f  51//41 53//45 49//41
f  49//42 53//46 51//42
f  52//1 53//1 56//1
f  56//2 53//2 52//2
f  54//43 52//39 56//43
f  56//44 52//40 54//44
f  55//2 50//2 54//2
f  54//1 50//1 55//1
f  53//45 51//41 55//45
f  55//46 51//42 53//46
f  56//1 53//1 57//1
f  57//2 53//2 56//2
f  56//43 58//47 54//43
f  54//44 58//48 56//44
f  55//2 54//2 59//2
f  59//1 54//1 55//1
f  55//45 57//49 53//45
f  53//46 57//50 55//46
f  56//1 57//1 60//1
f  60//2 57//2 56//2
f  58//47 56//43 61//47
f  61//48 56//44 58//48
f  59//2 54//2 58//2
f  58//1 54//1 59//1
f  57//49 55//45 59//49
f  59//50 55//46 57//50
f  60//1 57//1 62//1
f  62//2 57//2 60//2
f  63//1 56//1 60//1
f  60//2 56//2 63//2
f  56//1 63//1 61//1
f  61//2 63//2 56//2
f  61//47 64//51 58//47
f  58//48 64//52 61//48
f  59//2 58//2 65//2
f  65//1 58//1 59//1
f  59//49 66//53 57//49
f  57//50 66//54 59//50
f  62//1 57//1 66//1
f  66//2 57//2 62//2
f  62//1 67//1 60//1
f  60//2 67//2 62//2
f  68//5 60//5 62//5
f  62//6 60//6 68//6
f  63//1 60//1 67//1
f  67//2 60//2 63//2
f  61//1 63//1 69//1
f  69//2 63//2 61//2
f  64//51 61//47 70//51
f  70//52 61//48 64//52
f  65//2 58//2 64//2
f  64//1 58//1 65//1
f  66//53 59//49 65//53
f  65//54 59//50 66//54
f  62//1 66//1 71//1
f  71//2 66//2 62//2
f  67//1 62//1 71//1
f  71//2 62//2 67//2
f  60//3 72//3 67//3
f  67//4 72//4 60//4
f  60//5 68//5 73//5
f  73//6 68//6 60//6
f  71//4 68//4 62//4
f  62//3 68//3 71//3
f  63//1 67//1 74//1
f  74//2 67//2 63//2
f  63//1 75//1 69//1
f  69//2 75//2 63//2
f  76//6 69//6 63//6
f  63//5 69//5 76//5
f  61//1 69//1 70//1
f  70//2 69//2 61//2
f  66//4 64//4 70//4
f  70//3 64//3 66//3
f  64//4 66//4 65//4
f  65//3 66//3 64//3
f  71//1 66//1 75//1
f  75//2 66//2 71//2
f  72//6 71//6 67//6
f  67//5 71//5 72//5
f  71//1 74//1 67//1
f  67//2 74//2 71//2
f  72//3 60//3 73//3
f  73//4 60//4 72//4
f  68//1 72//1 73//1
f  73//2 72//2 68//2
f  68//4 71//4 77//4
f  77//3 71//3 68//3
f  75//1 63//1 74//1
f  74//2 63//2 75//2
f  74//3 76//3 63//3
f  63//4 76//4 74//4
f  69//4 78//4 75//4
f  75//3 78//3 69//3
f  75//1 66//1 69//1
f  69//2 66//2 75//2
f  69//6 76//6 79//6
f  79//5 76//5 69//5
f  70//1 69//1 66//1
f  66//2 69//2 70//2
f  74//1 71//1 75//1
f  75//2 71//2 74//2
f  71//6 72//6 77//6
f  77//5 72//5 71//5
f  72//1 68//1 77//1
f  77//2 68//2 72//2
f  78//5 74//5 75//5
f  75//6 74//6 78//6
f  76//3 74//3 80//3
f  80//4 74//4 76//4
f  78//4 69//4 79//4
f  79//3 69//3 78//3
f  76//1 78//1 79//1
f  79//2 78//2 76//2
f  74//5 78//5 80//5
f  80//6 78//6 74//6
f  78//1 76//1 80//1
f  80//2 76//2 78//2

# Mesh 'mesh2_mesh2-geometry' with 12 faces
g mesh2_mesh2-geometry
usemtl material_0_0
l  3 2
l  1 3
l  3 5
l  2 4
l  2 7
l  4 1
l  1 8
l  5 7
l  8 5
l  4 6
l  7 6
l  6 8

# Mesh 'mesh3_mesh3-geometry' with 12 faces
g mesh3_mesh3-geometry
usemtl material_0_0
l  80 76
l  78 80
l  80 74
l  76 79
l  76 63
l  79 78
l  78 75
l  74 63
l  75 74
l  79 69
l  63 69
l  69 75

# Mesh 'mesh4_mesh4-geometry' with 12 faces
g mesh4_mesh4-geometry
usemtl material_0_0
l  24 17
l  22 24
l  24 13
l  17 25
l  17 9
l  25 22
l  22 16
l  13 9
l  16 13
l  25 10
l  9 10
l  10 16

# Mesh 'mesh5_mesh5-geometry' with 12 faces
g mesh5_mesh5-geometry
usemtl material_0_0
l  73 72
l  68 73
l  73 60
l  72 77
l  72 67
l  77 68
l  68 62
l  60 67
l  62 60
l  77 71
l  67 71
l  71 62

# Mesh 'mesh6_mesh6-geometry' with 52 faces
g mesh6_mesh6-geometry
usemtl material_0_0
l  70 61
l  66 70
l  70 64
l  61 56
l  57 66
l  66 65
l  65 64
l  64 58
l  56 52
l  53 57
l  59 65
l  58 54
l  52 47
l  49 53
l  55 59
l  54 50
l  47 40
l  44 49
l  51 55
l  50 45
l  40 36
l  43 44
l  48 51
l  45 41
l  36 32
l  39 43
l  46 48
l  41 37
l  32 18
l  35 39
l  42 46
l  37 33
l  18 14
l  26 35
l  38 42
l  33 27
l  14 12
l  11 26
l  34 38
l  27 20
l  12 15
l  23 11
l  31 34
l  20 19
l  21 15
l  15 28
l  21 23
l  30 31
l  19 28
l  21 29
l  29 28
l  29 30

